<mxfile host="Electron" agent="Mozilla/5.0 (Windows NT 10.0; Win64; x64) AppleWebKit/537.36 (KHTML, like Gecko) draw.io/24.7.8 Chrome/128.0.6613.36 Electron/32.0.1 Safari/537.36" version="24.7.8" pages="7">
  <diagram name="Chains" id="1CzAoTpDxxS4nN460XNL">
    <mxGraphModel dx="991" dy="695" grid="0" gridSize="10" guides="1" tooltips="1" connect="1" arrows="1" fold="1" page="1" pageScale="1" pageWidth="850" pageHeight="1100" math="0" shadow="0">
      <root>
        <mxCell id="0" />
        <mxCell id="1" parent="0" />
        <mxCell id="4TGWgLPOF4FfRbXSzZ3m-9" value="" style="edgeStyle=orthogonalEdgeStyle;rounded=1;orthogonalLoop=1;jettySize=auto;html=1;flowAnimation=1;strokeWidth=2;curved=0;" parent="1" source="4TGWgLPOF4FfRbXSzZ3m-7" target="4TGWgLPOF4FfRbXSzZ3m-8" edge="1">
          <mxGeometry relative="1" as="geometry" />
        </mxCell>
        <mxCell id="4TGWgLPOF4FfRbXSzZ3m-7" value="Prompt" style="rounded=0;whiteSpace=wrap;html=1;fillColor=#dae8fc;strokeColor=#6c8ebf;" parent="1" vertex="1">
          <mxGeometry x="904" y="283" width="120" height="60" as="geometry" />
        </mxCell>
        <mxCell id="4TGWgLPOF4FfRbXSzZ3m-11" value="" style="edgeStyle=orthogonalEdgeStyle;rounded=1;orthogonalLoop=1;jettySize=auto;html=1;flowAnimation=1;strokeWidth=2;curved=0;" parent="1" source="4TGWgLPOF4FfRbXSzZ3m-8" target="4TGWgLPOF4FfRbXSzZ3m-10" edge="1">
          <mxGeometry relative="1" as="geometry" />
        </mxCell>
        <mxCell id="4TGWgLPOF4FfRbXSzZ3m-8" value="Model" style="rounded=0;whiteSpace=wrap;html=1;fillColor=#dae8fc;strokeColor=#6c8ebf;" parent="1" vertex="1">
          <mxGeometry x="1104" y="283" width="120" height="60" as="geometry" />
        </mxCell>
        <mxCell id="4TGWgLPOF4FfRbXSzZ3m-13" value="" style="edgeStyle=orthogonalEdgeStyle;rounded=1;orthogonalLoop=1;jettySize=auto;html=1;flowAnimation=1;strokeWidth=2;curved=0;" parent="1" source="4TGWgLPOF4FfRbXSzZ3m-10" target="4TGWgLPOF4FfRbXSzZ3m-12" edge="1">
          <mxGeometry relative="1" as="geometry" />
        </mxCell>
        <mxCell id="4TGWgLPOF4FfRbXSzZ3m-10" value="Parser" style="rounded=0;whiteSpace=wrap;html=1;" parent="1" vertex="1">
          <mxGeometry x="1304" y="283" width="120" height="60" as="geometry" />
        </mxCell>
        <mxCell id="4TGWgLPOF4FfRbXSzZ3m-12" value="&lt;b&gt;result&lt;/b&gt;" style="ellipse;whiteSpace=wrap;html=1;rounded=0;" parent="1" vertex="1">
          <mxGeometry x="1524" y="273" width="80" height="80" as="geometry" />
        </mxCell>
        <mxCell id="4TGWgLPOF4FfRbXSzZ3m-14" value="&lt;p&gt;&lt;font face=&quot;Helvetica&quot; style=&quot;font-size: 14px;&quot;&gt;chain = prompt | model | parser&lt;/font&gt;&lt;/p&gt;" style="text;html=1;align=center;verticalAlign=middle;resizable=0;points=[];autosize=1;strokeColor=#d79b00;fillColor=#ffe6cc;" parent="1" vertex="1">
          <mxGeometry x="1084" y="383" width="220" height="50" as="geometry" />
        </mxCell>
        <mxCell id="4TGWgLPOF4FfRbXSzZ3m-21" value="" style="edgeStyle=orthogonalEdgeStyle;rounded=1;orthogonalLoop=1;jettySize=auto;html=1;flowAnimation=0;strokeWidth=2;curved=0;sketch=1;curveFitting=1;jiggle=2;" parent="1" source="4TGWgLPOF4FfRbXSzZ3m-16" target="4TGWgLPOF4FfRbXSzZ3m-14" edge="1">
          <mxGeometry relative="1" as="geometry" />
        </mxCell>
        <mxCell id="4TGWgLPOF4FfRbXSzZ3m-16" value="LangChain Expression Language (LCEL)" style="text;html=1;align=center;verticalAlign=middle;resizable=0;points=[];autosize=1;strokeColor=none;fillColor=none;fontColor=#3333FF;fontStyle=2" parent="1" vertex="1">
          <mxGeometry x="1364" y="393" width="240" height="30" as="geometry" />
        </mxCell>
        <mxCell id="4TGWgLPOF4FfRbXSzZ3m-22" value="&lt;span style=&quot;font-size: 14px;&quot;&gt;result = chain.invoke({...})&lt;/span&gt;" style="text;html=1;align=center;verticalAlign=middle;resizable=0;points=[];autosize=1;strokeColor=none;fillColor=none;" parent="1" vertex="1">
          <mxGeometry x="1104" y="443" width="180" height="30" as="geometry" />
        </mxCell>
        <mxCell id="4TGWgLPOF4FfRbXSzZ3m-23" value="&lt;h2&gt;&lt;font color=&quot;#cc0000&quot;&gt;Types of Chains&lt;/font&gt;&lt;/h2&gt;" style="text;html=1;align=center;verticalAlign=middle;resizable=0;points=[];autosize=1;strokeColor=none;fillColor=none;" parent="1" vertex="1">
          <mxGeometry x="893" y="511" width="156" height="63" as="geometry" />
        </mxCell>
        <mxCell id="4TGWgLPOF4FfRbXSzZ3m-24" value="&lt;h1&gt;Chains&lt;/h1&gt;" style="text;html=1;align=center;verticalAlign=middle;resizable=0;points=[];autosize=1;strokeColor=none;fillColor=none;" parent="1" vertex="1">
          <mxGeometry x="1179" y="13" width="100" height="70" as="geometry" />
        </mxCell>
        <mxCell id="4TGWgLPOF4FfRbXSzZ3m-26" value="&lt;div&gt;To create custom chains, LangChain has implemented a &quot;Runnable&quot; protocol.&lt;/div&gt;&lt;div&gt;Many LangChain components implement this &quot;Runnable&quot; protocol. Example - ChatModels, Prompt templates, LLMs, Output Parsers etc.&lt;/div&gt;" style="text;html=1;align=left;verticalAlign=middle;resizable=0;points=[];autosize=1;strokeColor=none;fillColor=none;" parent="1" vertex="1">
          <mxGeometry x="904" y="63" width="750" height="40" as="geometry" />
        </mxCell>
        <mxCell id="4TGWgLPOF4FfRbXSzZ3m-27" value="&lt;h2&gt;&lt;b&gt;&lt;font color=&quot;#cc0000&quot;&gt;What is a Runnable?&lt;/font&gt;&lt;/b&gt;&lt;/h2&gt;&lt;div&gt;&lt;span style=&quot;background-color: initial;&quot;&gt;It is a standard interface, which makes it easy to define custom chains as well as invoke them in a standard way.&amp;nbsp;&lt;/span&gt;&lt;br&gt;&lt;/div&gt;&lt;div&gt;The standard interface includes:&lt;/div&gt;&lt;div&gt;&lt;span style=&quot;white-space-collapse: collapse;&quot;&gt;&lt;span style=&quot;white-space: pre;&quot;&gt;&#x9;&lt;/span&gt;- &lt;b&gt;stream&lt;/b&gt;: stream back chunks of the response&lt;/span&gt;&lt;/div&gt;&lt;div&gt;&lt;span style=&quot;white-space-collapse: collapse;&quot;&gt;&lt;span style=&quot;white-space-collapse: preserve;&quot;&gt;&#x9;&lt;/span&gt;- &lt;b&gt;invoke&lt;/b&gt;: call the chain on an input&lt;/span&gt;&lt;/div&gt;&lt;div&gt;&lt;span style=&quot;white-space-collapse: collapse;&quot;&gt;&lt;span style=&quot;white-space-collapse: preserve;&quot;&gt;&#x9;&lt;/span&gt;- &lt;b&gt;batch&lt;/b&gt;: call the chain on an array of inputs&lt;/span&gt;&lt;/div&gt;" style="text;html=1;align=left;verticalAlign=middle;resizable=0;points=[];autosize=1;strokeColor=none;fillColor=none;" parent="1" vertex="1">
          <mxGeometry x="904" y="101" width="617" height="135" as="geometry" />
        </mxCell>
        <mxCell id="4TGWgLPOF4FfRbXSzZ3m-32" value="" style="edgeStyle=orthogonalEdgeStyle;rounded=1;orthogonalLoop=1;jettySize=auto;html=1;flowAnimation=1;strokeWidth=2;curved=0;" parent="1" source="4TGWgLPOF4FfRbXSzZ3m-29" target="4TGWgLPOF4FfRbXSzZ3m-31" edge="1">
          <mxGeometry relative="1" as="geometry" />
        </mxCell>
        <mxCell id="4TGWgLPOF4FfRbXSzZ3m-29" value="prompt" style="ellipse;whiteSpace=wrap;html=1;aspect=fixed;" parent="1" vertex="1">
          <mxGeometry x="952" y="616" width="80" height="80" as="geometry" />
        </mxCell>
        <mxCell id="4TGWgLPOF4FfRbXSzZ3m-34" value="" style="edgeStyle=orthogonalEdgeStyle;rounded=1;orthogonalLoop=1;jettySize=auto;html=1;flowAnimation=1;strokeWidth=2;curved=0;" parent="1" source="4TGWgLPOF4FfRbXSzZ3m-31" target="4TGWgLPOF4FfRbXSzZ3m-33" edge="1">
          <mxGeometry relative="1" as="geometry" />
        </mxCell>
        <mxCell id="4TGWgLPOF4FfRbXSzZ3m-31" value="llm" style="ellipse;whiteSpace=wrap;html=1;aspect=fixed;" parent="1" vertex="1">
          <mxGeometry x="1112" y="616" width="80" height="80" as="geometry" />
        </mxCell>
        <mxCell id="4TGWgLPOF4FfRbXSzZ3m-36" value="" style="edgeStyle=orthogonalEdgeStyle;rounded=1;orthogonalLoop=1;jettySize=auto;html=1;flowAnimation=1;strokeWidth=2;curved=0;" parent="1" source="4TGWgLPOF4FfRbXSzZ3m-33" target="4TGWgLPOF4FfRbXSzZ3m-35" edge="1">
          <mxGeometry relative="1" as="geometry" />
        </mxCell>
        <mxCell id="4TGWgLPOF4FfRbXSzZ3m-33" value="uppercase" style="ellipse;whiteSpace=wrap;html=1;aspect=fixed;" parent="1" vertex="1">
          <mxGeometry x="1272" y="616" width="80" height="80" as="geometry" />
        </mxCell>
        <mxCell id="1TFQUgtLwBUARE-BusSC-2" value="" style="edgeStyle=orthogonalEdgeStyle;rounded=0;orthogonalLoop=1;jettySize=auto;html=1;" parent="1" source="4TGWgLPOF4FfRbXSzZ3m-35" target="1TFQUgtLwBUARE-BusSC-1" edge="1">
          <mxGeometry relative="1" as="geometry" />
        </mxCell>
        <mxCell id="4TGWgLPOF4FfRbXSzZ3m-35" value="word count" style="ellipse;whiteSpace=wrap;html=1;aspect=fixed;" parent="1" vertex="1">
          <mxGeometry x="1432" y="616" width="80" height="80" as="geometry" />
        </mxCell>
        <mxCell id="4TGWgLPOF4FfRbXSzZ3m-37" value="Extended" style="text;html=1;align=center;verticalAlign=middle;resizable=0;points=[];autosize=1;strokeColor=none;fillColor=none;fontStyle=1" parent="1" vertex="1">
          <mxGeometry x="868" y="643" width="69" height="26" as="geometry" />
        </mxCell>
        <mxCell id="4TGWgLPOF4FfRbXSzZ3m-38" value="Parallel" style="text;html=1;align=center;verticalAlign=middle;resizable=0;points=[];autosize=1;strokeColor=none;fillColor=none;fontStyle=1" parent="1" vertex="1">
          <mxGeometry x="868" y="824" width="58" height="26" as="geometry" />
        </mxCell>
        <mxCell id="4TGWgLPOF4FfRbXSzZ3m-43" style="edgeStyle=orthogonalEdgeStyle;rounded=1;orthogonalLoop=1;jettySize=auto;html=1;flowAnimation=1;strokeWidth=2;curved=0;" parent="1" source="4TGWgLPOF4FfRbXSzZ3m-40" target="4TGWgLPOF4FfRbXSzZ3m-41" edge="1">
          <mxGeometry relative="1" as="geometry" />
        </mxCell>
        <mxCell id="4TGWgLPOF4FfRbXSzZ3m-44" style="edgeStyle=orthogonalEdgeStyle;rounded=1;orthogonalLoop=1;jettySize=auto;html=1;entryX=0;entryY=0.5;entryDx=0;entryDy=0;flowAnimation=1;strokeWidth=2;curved=0;" parent="1" source="4TGWgLPOF4FfRbXSzZ3m-40" target="4TGWgLPOF4FfRbXSzZ3m-42" edge="1">
          <mxGeometry relative="1" as="geometry" />
        </mxCell>
        <mxCell id="4TGWgLPOF4FfRbXSzZ3m-40" value="" style="ellipse;whiteSpace=wrap;html=1;aspect=fixed;" parent="1" vertex="1">
          <mxGeometry x="952" y="791" width="80" height="80" as="geometry" />
        </mxCell>
        <mxCell id="4TGWgLPOF4FfRbXSzZ3m-46" value="" style="edgeStyle=orthogonalEdgeStyle;rounded=1;orthogonalLoop=1;jettySize=auto;html=1;flowAnimation=1;strokeWidth=2;curved=0;" parent="1" source="4TGWgLPOF4FfRbXSzZ3m-41" target="4TGWgLPOF4FfRbXSzZ3m-45" edge="1">
          <mxGeometry relative="1" as="geometry" />
        </mxCell>
        <mxCell id="4TGWgLPOF4FfRbXSzZ3m-41" value="" style="ellipse;whiteSpace=wrap;html=1;aspect=fixed;" parent="1" vertex="1">
          <mxGeometry x="1115" y="740" width="80" height="80" as="geometry" />
        </mxCell>
        <mxCell id="4TGWgLPOF4FfRbXSzZ3m-48" value="" style="edgeStyle=orthogonalEdgeStyle;rounded=1;orthogonalLoop=1;jettySize=auto;html=1;flowAnimation=1;strokeWidth=2;curved=0;" parent="1" source="4TGWgLPOF4FfRbXSzZ3m-42" target="4TGWgLPOF4FfRbXSzZ3m-47" edge="1">
          <mxGeometry relative="1" as="geometry" />
        </mxCell>
        <mxCell id="4TGWgLPOF4FfRbXSzZ3m-42" value="" style="ellipse;whiteSpace=wrap;html=1;aspect=fixed;" parent="1" vertex="1">
          <mxGeometry x="1115" y="844" width="80" height="80" as="geometry" />
        </mxCell>
        <mxCell id="4TGWgLPOF4FfRbXSzZ3m-50" value="" style="edgeStyle=orthogonalEdgeStyle;rounded=1;orthogonalLoop=1;jettySize=auto;html=1;flowAnimation=1;strokeWidth=2;curved=0;" parent="1" source="4TGWgLPOF4FfRbXSzZ3m-45" target="4TGWgLPOF4FfRbXSzZ3m-49" edge="1">
          <mxGeometry relative="1" as="geometry" />
        </mxCell>
        <mxCell id="4TGWgLPOF4FfRbXSzZ3m-45" value="" style="ellipse;whiteSpace=wrap;html=1;aspect=fixed;" parent="1" vertex="1">
          <mxGeometry x="1275" y="740" width="80" height="80" as="geometry" />
        </mxCell>
        <mxCell id="4TGWgLPOF4FfRbXSzZ3m-52" value="" style="edgeStyle=orthogonalEdgeStyle;rounded=1;orthogonalLoop=1;jettySize=auto;html=1;flowAnimation=1;strokeWidth=2;curved=0;" parent="1" source="4TGWgLPOF4FfRbXSzZ3m-47" target="4TGWgLPOF4FfRbXSzZ3m-51" edge="1">
          <mxGeometry relative="1" as="geometry" />
        </mxCell>
        <mxCell id="4TGWgLPOF4FfRbXSzZ3m-47" value="" style="ellipse;whiteSpace=wrap;html=1;aspect=fixed;" parent="1" vertex="1">
          <mxGeometry x="1275" y="844" width="80" height="80" as="geometry" />
        </mxCell>
        <mxCell id="4TGWgLPOF4FfRbXSzZ3m-54" value="" style="edgeStyle=orthogonalEdgeStyle;rounded=1;orthogonalLoop=1;jettySize=auto;html=1;flowAnimation=1;strokeWidth=2;curved=0;" parent="1" source="4TGWgLPOF4FfRbXSzZ3m-49" target="4TGWgLPOF4FfRbXSzZ3m-53" edge="1">
          <mxGeometry relative="1" as="geometry" />
        </mxCell>
        <mxCell id="4TGWgLPOF4FfRbXSzZ3m-49" value="" style="ellipse;whiteSpace=wrap;html=1;aspect=fixed;" parent="1" vertex="1">
          <mxGeometry x="1435" y="740" width="80" height="80" as="geometry" />
        </mxCell>
        <mxCell id="4TGWgLPOF4FfRbXSzZ3m-55" value="" style="edgeStyle=orthogonalEdgeStyle;rounded=1;orthogonalLoop=1;jettySize=auto;html=1;flowAnimation=1;strokeWidth=2;curved=0;" parent="1" source="4TGWgLPOF4FfRbXSzZ3m-51" target="4TGWgLPOF4FfRbXSzZ3m-53" edge="1">
          <mxGeometry relative="1" as="geometry" />
        </mxCell>
        <mxCell id="4TGWgLPOF4FfRbXSzZ3m-51" value="" style="ellipse;whiteSpace=wrap;html=1;aspect=fixed;" parent="1" vertex="1">
          <mxGeometry x="1435" y="844" width="80" height="80" as="geometry" />
        </mxCell>
        <mxCell id="4TGWgLPOF4FfRbXSzZ3m-53" value="" style="ellipse;whiteSpace=wrap;html=1;aspect=fixed;" parent="1" vertex="1">
          <mxGeometry x="1589" y="801" width="80" height="80" as="geometry" />
        </mxCell>
        <mxCell id="4TGWgLPOF4FfRbXSzZ3m-56" value="Branching" style="text;html=1;align=center;verticalAlign=middle;resizable=0;points=[];autosize=1;strokeColor=none;fillColor=none;fontStyle=1" parent="1" vertex="1">
          <mxGeometry x="866.5" y="1042" width="72" height="26" as="geometry" />
        </mxCell>
        <mxCell id="4TGWgLPOF4FfRbXSzZ3m-62" value="" style="edgeStyle=orthogonalEdgeStyle;rounded=1;orthogonalLoop=1;jettySize=auto;html=1;flowAnimation=1;strokeWidth=2;curved=0;" parent="1" source="4TGWgLPOF4FfRbXSzZ3m-57" target="4TGWgLPOF4FfRbXSzZ3m-58" edge="1">
          <mxGeometry relative="1" as="geometry">
            <Array as="points">
              <mxPoint x="1058" y="1090" />
              <mxPoint x="1058" y="995" />
            </Array>
          </mxGeometry>
        </mxCell>
        <mxCell id="4TGWgLPOF4FfRbXSzZ3m-66" style="edgeStyle=orthogonalEdgeStyle;rounded=1;orthogonalLoop=1;jettySize=auto;html=1;flowAnimation=1;strokeWidth=2;curved=0;" parent="1" source="4TGWgLPOF4FfRbXSzZ3m-57" target="4TGWgLPOF4FfRbXSzZ3m-64" edge="1">
          <mxGeometry relative="1" as="geometry">
            <mxPoint x="1061" y="1067" as="targetPoint" />
          </mxGeometry>
        </mxCell>
        <mxCell id="4TGWgLPOF4FfRbXSzZ3m-57" value="" style="ellipse;whiteSpace=wrap;html=1;aspect=fixed;" parent="1" vertex="1">
          <mxGeometry x="937" y="1050" width="80" height="80" as="geometry" />
        </mxCell>
        <mxCell id="4TGWgLPOF4FfRbXSzZ3m-69" value="" style="edgeStyle=orthogonalEdgeStyle;rounded=0;orthogonalLoop=1;jettySize=auto;html=1;flowAnimation=1;strokeWidth=2;" parent="1" source="4TGWgLPOF4FfRbXSzZ3m-58" target="4TGWgLPOF4FfRbXSzZ3m-68" edge="1">
          <mxGeometry relative="1" as="geometry" />
        </mxCell>
        <mxCell id="4TGWgLPOF4FfRbXSzZ3m-58" value="" style="ellipse;whiteSpace=wrap;html=1;aspect=fixed;" parent="1" vertex="1">
          <mxGeometry x="1119" y="954" width="80" height="80" as="geometry" />
        </mxCell>
        <mxCell id="4TGWgLPOF4FfRbXSzZ3m-73" value="" style="edgeStyle=orthogonalEdgeStyle;rounded=0;orthogonalLoop=1;jettySize=auto;html=1;flowAnimation=1;strokeWidth=2;" parent="1" source="4TGWgLPOF4FfRbXSzZ3m-63" target="4TGWgLPOF4FfRbXSzZ3m-72" edge="1">
          <mxGeometry relative="1" as="geometry" />
        </mxCell>
        <mxCell id="4TGWgLPOF4FfRbXSzZ3m-63" value="" style="ellipse;whiteSpace=wrap;html=1;aspect=fixed;" parent="1" vertex="1">
          <mxGeometry x="1119" y="1149" width="80" height="80" as="geometry" />
        </mxCell>
        <mxCell id="4TGWgLPOF4FfRbXSzZ3m-71" value="" style="edgeStyle=orthogonalEdgeStyle;rounded=0;orthogonalLoop=1;jettySize=auto;html=1;flowAnimation=1;strokeWidth=2;" parent="1" source="4TGWgLPOF4FfRbXSzZ3m-64" target="4TGWgLPOF4FfRbXSzZ3m-70" edge="1">
          <mxGeometry relative="1" as="geometry" />
        </mxCell>
        <mxCell id="4TGWgLPOF4FfRbXSzZ3m-64" value="" style="ellipse;whiteSpace=wrap;html=1;aspect=fixed;" parent="1" vertex="1">
          <mxGeometry x="1119" y="1050" width="80" height="80" as="geometry" />
        </mxCell>
        <mxCell id="4TGWgLPOF4FfRbXSzZ3m-67" style="edgeStyle=orthogonalEdgeStyle;rounded=1;orthogonalLoop=1;jettySize=auto;html=1;entryX=-0.012;entryY=0.6;entryDx=0;entryDy=0;entryPerimeter=0;flowAnimation=1;strokeWidth=2;curved=0;" parent="1" source="4TGWgLPOF4FfRbXSzZ3m-57" target="4TGWgLPOF4FfRbXSzZ3m-63" edge="1">
          <mxGeometry relative="1" as="geometry">
            <Array as="points">
              <mxPoint x="1062" y="1090" />
              <mxPoint x="1062" y="1197" />
            </Array>
          </mxGeometry>
        </mxCell>
        <mxCell id="4TGWgLPOF4FfRbXSzZ3m-68" value="" style="ellipse;whiteSpace=wrap;html=1;aspect=fixed;" parent="1" vertex="1">
          <mxGeometry x="1279" y="954" width="80" height="80" as="geometry" />
        </mxCell>
        <mxCell id="4TGWgLPOF4FfRbXSzZ3m-70" value="" style="ellipse;whiteSpace=wrap;html=1;aspect=fixed;" parent="1" vertex="1">
          <mxGeometry x="1279" y="1050" width="80" height="80" as="geometry" />
        </mxCell>
        <mxCell id="4TGWgLPOF4FfRbXSzZ3m-72" value="" style="ellipse;whiteSpace=wrap;html=1;aspect=fixed;" parent="1" vertex="1">
          <mxGeometry x="1279" y="1149" width="80" height="80" as="geometry" />
        </mxCell>
        <mxCell id="1TFQUgtLwBUARE-BusSC-1" value="result" style="ellipse;whiteSpace=wrap;html=1;aspect=fixed;" parent="1" vertex="1">
          <mxGeometry x="1592" y="616" width="80" height="80" as="geometry" />
        </mxCell>
      </root>
    </mxGraphModel>
  </diagram>
  <diagram id="mb92wKi8EAmqtNV7zTmi" name="Parallel">
    <mxGraphModel dx="1753" dy="691" grid="0" gridSize="10" guides="1" tooltips="1" connect="1" arrows="1" fold="1" page="1" pageScale="1" pageWidth="850" pageHeight="1100" math="0" shadow="0">
      <root>
        <mxCell id="0" />
        <mxCell id="1" parent="0" />
        <mxCell id="JJNI-jWe07mcF9gOnZqu-3" value="" style="edgeStyle=orthogonalEdgeStyle;rounded=0;orthogonalLoop=1;jettySize=auto;html=1;flowAnimation=1;strokeWidth=2;" parent="1" source="JJNI-jWe07mcF9gOnZqu-1" target="JJNI-jWe07mcF9gOnZqu-2" edge="1">
          <mxGeometry relative="1" as="geometry" />
        </mxCell>
        <mxCell id="JJNI-jWe07mcF9gOnZqu-1" value="Prompt" style="ellipse;whiteSpace=wrap;html=1;aspect=fixed;fillColor=#f8cecc;strokeColor=#b85450;" parent="1" vertex="1">
          <mxGeometry x="372" y="63" width="80" height="80" as="geometry" />
        </mxCell>
        <mxCell id="JJNI-jWe07mcF9gOnZqu-5" value="" style="edgeStyle=orthogonalEdgeStyle;rounded=0;orthogonalLoop=1;jettySize=auto;html=1;flowAnimation=1;strokeWidth=2;" parent="1" source="JJNI-jWe07mcF9gOnZqu-2" target="JJNI-jWe07mcF9gOnZqu-4" edge="1">
          <mxGeometry relative="1" as="geometry" />
        </mxCell>
        <mxCell id="JJNI-jWe07mcF9gOnZqu-2" value="Model" style="ellipse;whiteSpace=wrap;html=1;aspect=fixed;fillColor=#dae8fc;strokeColor=#6c8ebf;" parent="1" vertex="1">
          <mxGeometry x="372" y="188" width="80" height="80" as="geometry" />
        </mxCell>
        <mxCell id="JJNI-jWe07mcF9gOnZqu-9" style="edgeStyle=orthogonalEdgeStyle;rounded=1;orthogonalLoop=1;jettySize=auto;html=1;exitX=0;exitY=1;exitDx=0;exitDy=0;entryX=0.5;entryY=0;entryDx=0;entryDy=0;curved=0;flowAnimation=1;strokeWidth=2;" parent="1" source="JJNI-jWe07mcF9gOnZqu-4" target="JJNI-jWe07mcF9gOnZqu-6" edge="1">
          <mxGeometry relative="1" as="geometry" />
        </mxCell>
        <mxCell id="JJNI-jWe07mcF9gOnZqu-4" value="Output Parser" style="ellipse;whiteSpace=wrap;html=1;aspect=fixed;fillColor=#d5e8d4;strokeColor=#82b366;" parent="1" vertex="1">
          <mxGeometry x="372" y="315" width="80" height="80" as="geometry" />
        </mxCell>
        <mxCell id="JJNI-jWe07mcF9gOnZqu-45" style="edgeStyle=orthogonalEdgeStyle;rounded=1;orthogonalLoop=1;jettySize=auto;html=1;exitX=0.5;exitY=1;exitDx=0;exitDy=0;entryX=0;entryY=0;entryDx=0;entryDy=0;curved=0;flowAnimation=1;strokeWidth=2;" parent="1" source="JJNI-jWe07mcF9gOnZqu-6" target="JJNI-jWe07mcF9gOnZqu-42" edge="1">
          <mxGeometry relative="1" as="geometry" />
        </mxCell>
        <mxCell id="JJNI-jWe07mcF9gOnZqu-6" value="Pros" style="rounded=1;whiteSpace=wrap;html=1;labelPosition=left;verticalLabelPosition=top;align=right;verticalAlign=bottom;" parent="1" vertex="1">
          <mxGeometry x="228" y="414" width="120" height="320" as="geometry" />
        </mxCell>
        <mxCell id="JJNI-jWe07mcF9gOnZqu-10" value="&lt;i&gt;product_name&lt;/i&gt;" style="text;html=1;align=center;verticalAlign=middle;resizable=0;points=[];autosize=1;strokeColor=none;fillColor=none;" parent="1" vertex="1">
          <mxGeometry x="461" y="94" width="95" height="26" as="geometry" />
        </mxCell>
        <mxCell id="JJNI-jWe07mcF9gOnZqu-11" value="&lt;i&gt;list features&amp;nbsp;&lt;/i&gt;&lt;div&gt;&lt;i&gt;for product&lt;/i&gt;&lt;/div&gt;" style="text;html=1;align=center;verticalAlign=middle;resizable=0;points=[];autosize=1;strokeColor=none;fillColor=none;" parent="1" vertex="1">
          <mxGeometry x="467" y="207.5" width="83" height="41" as="geometry" />
        </mxCell>
        <mxCell id="JJNI-jWe07mcF9gOnZqu-12" value="&lt;i&gt;{&lt;/i&gt;&lt;div&gt;&lt;i&gt;&amp;nbsp; content: ...,&lt;/i&gt;&lt;/div&gt;&lt;div&gt;&lt;i&gt;&amp;nbsp; tokens: 10&lt;/i&gt;&lt;/div&gt;&lt;div&gt;&lt;i&gt;}&lt;/i&gt;&lt;/div&gt;" style="text;html=1;align=left;verticalAlign=middle;resizable=0;points=[];autosize=1;strokeColor=none;fillColor=none;" parent="1" vertex="1">
          <mxGeometry x="461" y="305" width="84" height="70" as="geometry" />
        </mxCell>
        <mxCell id="JJNI-jWe07mcF9gOnZqu-13" value="&lt;i&gt;Analyze &lt;b&gt;pros &lt;/b&gt;prompt&lt;/i&gt;" style="text;html=1;align=left;verticalAlign=middle;resizable=0;points=[];autosize=1;strokeColor=none;fillColor=none;" parent="1" vertex="1">
          <mxGeometry x="94" y="455" width="131" height="26" as="geometry" />
        </mxCell>
        <mxCell id="JJNI-jWe07mcF9gOnZqu-16" value="" style="edgeStyle=orthogonalEdgeStyle;rounded=0;orthogonalLoop=1;jettySize=auto;html=1;flowAnimation=1;strokeWidth=2;" parent="1" source="JJNI-jWe07mcF9gOnZqu-14" target="JJNI-jWe07mcF9gOnZqu-15" edge="1">
          <mxGeometry relative="1" as="geometry" />
        </mxCell>
        <mxCell id="JJNI-jWe07mcF9gOnZqu-14" value="Prompt" style="ellipse;whiteSpace=wrap;html=1;aspect=fixed;fillColor=#f8cecc;strokeColor=#b85450;" parent="1" vertex="1">
          <mxGeometry x="253" y="433" width="70" height="70" as="geometry" />
        </mxCell>
        <mxCell id="JJNI-jWe07mcF9gOnZqu-18" value="" style="edgeStyle=orthogonalEdgeStyle;rounded=0;orthogonalLoop=1;jettySize=auto;html=1;flowAnimation=1;strokeWidth=2;" parent="1" source="JJNI-jWe07mcF9gOnZqu-15" target="JJNI-jWe07mcF9gOnZqu-17" edge="1">
          <mxGeometry relative="1" as="geometry" />
        </mxCell>
        <mxCell id="JJNI-jWe07mcF9gOnZqu-15" value="Model" style="ellipse;whiteSpace=wrap;html=1;aspect=fixed;fillColor=#dae8fc;strokeColor=#6c8ebf;" parent="1" vertex="1">
          <mxGeometry x="253" y="539" width="70" height="70" as="geometry" />
        </mxCell>
        <mxCell id="JJNI-jWe07mcF9gOnZqu-17" value="Output Parser" style="ellipse;whiteSpace=wrap;html=1;aspect=fixed;fillColor=#d5e8d4;strokeColor=#82b366;" parent="1" vertex="1">
          <mxGeometry x="253" y="653" width="70" height="70" as="geometry" />
        </mxCell>
        <mxCell id="JJNI-jWe07mcF9gOnZqu-19" value="&lt;i&gt;Generate Pros&lt;/i&gt;" style="text;html=1;align=left;verticalAlign=middle;resizable=0;points=[];autosize=1;strokeColor=none;fillColor=none;" parent="1" vertex="1">
          <mxGeometry x="107" y="561" width="96" height="26" as="geometry" />
        </mxCell>
        <mxCell id="JJNI-jWe07mcF9gOnZqu-21" value="&lt;i&gt;Grab content&lt;/i&gt;" style="text;html=1;align=left;verticalAlign=middle;resizable=0;points=[];autosize=1;strokeColor=none;fillColor=none;" parent="1" vertex="1">
          <mxGeometry x="107" y="667" width="87" height="26" as="geometry" />
        </mxCell>
        <mxCell id="JJNI-jWe07mcF9gOnZqu-31" style="edgeStyle=orthogonalEdgeStyle;rounded=1;orthogonalLoop=1;jettySize=auto;html=1;exitX=1;exitY=1;exitDx=0;exitDy=0;entryX=0.5;entryY=0;entryDx=0;entryDy=0;curved=0;flowAnimation=1;strokeWidth=2;" parent="1" source="JJNI-jWe07mcF9gOnZqu-4" target="JJNI-jWe07mcF9gOnZqu-32" edge="1">
          <mxGeometry relative="1" as="geometry">
            <mxPoint x="821" y="419" as="sourcePoint" />
          </mxGeometry>
        </mxCell>
        <mxCell id="JJNI-jWe07mcF9gOnZqu-44" style="edgeStyle=orthogonalEdgeStyle;rounded=1;orthogonalLoop=1;jettySize=auto;html=1;exitX=0.5;exitY=1;exitDx=0;exitDy=0;entryX=1;entryY=0;entryDx=0;entryDy=0;curved=0;flowAnimation=1;strokeWidth=2;" parent="1" source="JJNI-jWe07mcF9gOnZqu-32" target="JJNI-jWe07mcF9gOnZqu-42" edge="1">
          <mxGeometry relative="1" as="geometry" />
        </mxCell>
        <mxCell id="JJNI-jWe07mcF9gOnZqu-32" value="Cons" style="rounded=1;whiteSpace=wrap;html=1;labelPosition=right;verticalLabelPosition=top;align=left;verticalAlign=bottom;" parent="1" vertex="1">
          <mxGeometry x="465" y="417" width="120" height="320" as="geometry" />
        </mxCell>
        <mxCell id="JJNI-jWe07mcF9gOnZqu-33" value="&lt;i&gt;Analyze &lt;b&gt;cons &lt;/b&gt;prompt&lt;/i&gt;" style="text;html=1;align=left;verticalAlign=middle;resizable=0;points=[];autosize=1;strokeColor=none;fillColor=none;" parent="1" vertex="1">
          <mxGeometry x="590" y="455" width="133" height="26" as="geometry" />
        </mxCell>
        <mxCell id="JJNI-jWe07mcF9gOnZqu-34" value="" style="edgeStyle=orthogonalEdgeStyle;rounded=0;orthogonalLoop=1;jettySize=auto;html=1;flowAnimation=1;strokeWidth=2;" parent="1" source="JJNI-jWe07mcF9gOnZqu-35" target="JJNI-jWe07mcF9gOnZqu-37" edge="1">
          <mxGeometry relative="1" as="geometry" />
        </mxCell>
        <mxCell id="JJNI-jWe07mcF9gOnZqu-35" value="Prompt" style="ellipse;whiteSpace=wrap;html=1;aspect=fixed;fillColor=#f8cecc;strokeColor=#b85450;" parent="1" vertex="1">
          <mxGeometry x="490" y="436" width="70" height="70" as="geometry" />
        </mxCell>
        <mxCell id="JJNI-jWe07mcF9gOnZqu-36" value="" style="edgeStyle=orthogonalEdgeStyle;rounded=0;orthogonalLoop=1;jettySize=auto;html=1;flowAnimation=1;strokeWidth=2;" parent="1" source="JJNI-jWe07mcF9gOnZqu-37" target="JJNI-jWe07mcF9gOnZqu-38" edge="1">
          <mxGeometry relative="1" as="geometry" />
        </mxCell>
        <mxCell id="JJNI-jWe07mcF9gOnZqu-37" value="Model" style="ellipse;whiteSpace=wrap;html=1;aspect=fixed;fillColor=#dae8fc;strokeColor=#6c8ebf;" parent="1" vertex="1">
          <mxGeometry x="490" y="542" width="70" height="70" as="geometry" />
        </mxCell>
        <mxCell id="JJNI-jWe07mcF9gOnZqu-38" value="Output Parser" style="ellipse;whiteSpace=wrap;html=1;aspect=fixed;fillColor=#d5e8d4;strokeColor=#82b366;" parent="1" vertex="1">
          <mxGeometry x="490" y="656" width="70" height="70" as="geometry" />
        </mxCell>
        <mxCell id="JJNI-jWe07mcF9gOnZqu-39" value="&lt;i&gt;Generate Cons&lt;/i&gt;" style="text;html=1;align=left;verticalAlign=middle;resizable=0;points=[];autosize=1;strokeColor=none;fillColor=none;" parent="1" vertex="1">
          <mxGeometry x="599" y="561" width="99" height="26" as="geometry" />
        </mxCell>
        <mxCell id="JJNI-jWe07mcF9gOnZqu-40" value="&lt;i&gt;Grab content&lt;/i&gt;" style="text;html=1;align=left;verticalAlign=middle;resizable=0;points=[];autosize=1;strokeColor=none;fillColor=none;" parent="1" vertex="1">
          <mxGeometry x="603.5" y="667" width="87" height="26" as="geometry" />
        </mxCell>
        <mxCell id="JJNI-jWe07mcF9gOnZqu-42" value="Lambda" style="ellipse;whiteSpace=wrap;html=1;aspect=fixed;fillColor=#fff2cc;strokeColor=#d6b656;" parent="1" vertex="1">
          <mxGeometry x="375" y="780" width="70" height="70" as="geometry" />
        </mxCell>
        <mxCell id="JJNI-jWe07mcF9gOnZqu-43" value="&lt;i&gt;Combine Pros and Cons&lt;/i&gt;" style="text;html=1;align=left;verticalAlign=middle;resizable=0;points=[];autosize=1;strokeColor=none;fillColor=none;" parent="1" vertex="1">
          <mxGeometry x="457" y="809" width="149" height="26" as="geometry" />
        </mxCell>
      </root>
    </mxGraphModel>
  </diagram>
  <diagram id="ecov-VkocKTXcbfj4bn3" name="Branching">
    <mxGraphModel dx="1728" dy="697" grid="0" gridSize="10" guides="1" tooltips="1" connect="1" arrows="1" fold="1" page="1" pageScale="1" pageWidth="850" pageHeight="1100" math="0" shadow="0">
      <root>
        <mxCell id="0" />
        <mxCell id="1" parent="0" />
        <mxCell id="drozZVfJPTrAa4Q73ILo-3" value="" style="edgeStyle=orthogonalEdgeStyle;rounded=0;orthogonalLoop=1;jettySize=auto;html=1;flowAnimation=1;strokeWidth=2;endArrow=block;endFill=1;" parent="1" source="drozZVfJPTrAa4Q73ILo-1" target="drozZVfJPTrAa4Q73ILo-2" edge="1">
          <mxGeometry relative="1" as="geometry" />
        </mxCell>
        <mxCell id="drozZVfJPTrAa4Q73ILo-1" value="Prompt" style="ellipse;whiteSpace=wrap;html=1;aspect=fixed;" parent="1" vertex="1">
          <mxGeometry x="366" y="16" width="80" height="80" as="geometry" />
        </mxCell>
        <mxCell id="drozZVfJPTrAa4Q73ILo-5" value="" style="edgeStyle=orthogonalEdgeStyle;rounded=0;orthogonalLoop=1;jettySize=auto;html=1;flowAnimation=1;strokeWidth=2;endArrow=block;endFill=1;" parent="1" source="drozZVfJPTrAa4Q73ILo-2" target="drozZVfJPTrAa4Q73ILo-4" edge="1">
          <mxGeometry relative="1" as="geometry" />
        </mxCell>
        <mxCell id="drozZVfJPTrAa4Q73ILo-2" value="Model" style="ellipse;whiteSpace=wrap;html=1;aspect=fixed;" parent="1" vertex="1">
          <mxGeometry x="366" y="131" width="80" height="80" as="geometry" />
        </mxCell>
        <mxCell id="1B1UQVx842eTG7SBvVWN-4" style="edgeStyle=orthogonalEdgeStyle;rounded=0;orthogonalLoop=1;jettySize=auto;html=1;exitX=0.5;exitY=1;exitDx=0;exitDy=0;entryX=0.5;entryY=0;entryDx=0;entryDy=0;flowAnimation=1;strokeWidth=2;endArrow=block;endFill=1;" parent="1" source="drozZVfJPTrAa4Q73ILo-4" target="1B1UQVx842eTG7SBvVWN-1" edge="1">
          <mxGeometry relative="1" as="geometry" />
        </mxCell>
        <mxCell id="1B1UQVx842eTG7SBvVWN-5" style="edgeStyle=orthogonalEdgeStyle;rounded=0;orthogonalLoop=1;jettySize=auto;html=1;entryX=0.5;entryY=0;entryDx=0;entryDy=0;flowAnimation=1;strokeWidth=2;endArrow=block;endFill=1;" parent="1" source="drozZVfJPTrAa4Q73ILo-4" target="1B1UQVx842eTG7SBvVWN-2" edge="1">
          <mxGeometry relative="1" as="geometry" />
        </mxCell>
        <mxCell id="1B1UQVx842eTG7SBvVWN-6" style="edgeStyle=orthogonalEdgeStyle;rounded=0;orthogonalLoop=1;jettySize=auto;html=1;flowAnimation=1;strokeWidth=2;endArrow=block;endFill=1;" parent="1" source="drozZVfJPTrAa4Q73ILo-4" target="1B1UQVx842eTG7SBvVWN-3" edge="1">
          <mxGeometry relative="1" as="geometry">
            <Array as="points">
              <mxPoint x="406" y="361" />
              <mxPoint x="586" y="361" />
            </Array>
          </mxGeometry>
        </mxCell>
        <mxCell id="drozZVfJPTrAa4Q73ILo-4" value="Output Parser" style="ellipse;whiteSpace=wrap;html=1;aspect=fixed;" parent="1" vertex="1">
          <mxGeometry x="366" y="258" width="80" height="80" as="geometry" />
        </mxCell>
        <mxCell id="vFdByVMGnfWhxdvfObbP-1" value="&lt;i&gt;review&lt;/i&gt;" style="text;html=1;align=center;verticalAlign=middle;resizable=0;points=[];autosize=1;strokeColor=none;fillColor=none;" parent="1" vertex="1">
          <mxGeometry x="485" y="39" width="53" height="26" as="geometry" />
        </mxCell>
        <mxCell id="vFdByVMGnfWhxdvfObbP-2" value="&lt;i&gt;classify the review:&lt;/i&gt;&lt;div&gt;&lt;i&gt;positive, negative, neutral&lt;/i&gt;&lt;/div&gt;" style="text;html=1;align=center;verticalAlign=middle;resizable=0;points=[];autosize=1;strokeColor=#b85450;fillColor=#f8cecc;" parent="1" vertex="1">
          <mxGeometry x="457" y="150.5" width="154" height="41" as="geometry" />
        </mxCell>
        <mxCell id="vFdByVMGnfWhxdvfObbP-3" value="&lt;i&gt;category&lt;/i&gt;" style="text;html=1;align=left;verticalAlign=middle;resizable=0;points=[];autosize=1;strokeColor=none;fillColor=none;" parent="1" vertex="1">
          <mxGeometry x="485" y="277" width="64" height="26" as="geometry" />
        </mxCell>
        <mxCell id="1B1UQVx842eTG7SBvVWN-1" value="Positive" style="rounded=1;whiteSpace=wrap;html=1;labelPosition=center;verticalLabelPosition=bottom;align=center;verticalAlign=top;" parent="1" vertex="1">
          <mxGeometry x="162" y="382" width="120" height="340" as="geometry" />
        </mxCell>
        <mxCell id="1B1UQVx842eTG7SBvVWN-2" value="Neutral" style="rounded=1;whiteSpace=wrap;html=1;labelPosition=center;verticalLabelPosition=bottom;align=center;verticalAlign=top;" parent="1" vertex="1">
          <mxGeometry x="346" y="385" width="120" height="340" as="geometry" />
        </mxCell>
        <mxCell id="1B1UQVx842eTG7SBvVWN-3" value="Negative" style="rounded=1;whiteSpace=wrap;html=1;labelPosition=center;verticalLabelPosition=bottom;align=center;verticalAlign=top;" parent="1" vertex="1">
          <mxGeometry x="526" y="382" width="120" height="343" as="geometry" />
        </mxCell>
        <mxCell id="1B1UQVx842eTG7SBvVWN-17" value="" style="edgeStyle=orthogonalEdgeStyle;rounded=0;orthogonalLoop=1;jettySize=auto;html=1;flowAnimation=1;strokeWidth=2;endArrow=block;endFill=1;" parent="1" source="1B1UQVx842eTG7SBvVWN-8" target="1B1UQVx842eTG7SBvVWN-9" edge="1">
          <mxGeometry relative="1" as="geometry" />
        </mxCell>
        <mxCell id="1B1UQVx842eTG7SBvVWN-8" value="Prompt" style="ellipse;whiteSpace=wrap;html=1;aspect=fixed;" parent="1" vertex="1">
          <mxGeometry x="182" y="393" width="80" height="80" as="geometry" />
        </mxCell>
        <mxCell id="1B1UQVx842eTG7SBvVWN-18" value="" style="edgeStyle=orthogonalEdgeStyle;rounded=0;orthogonalLoop=1;jettySize=auto;html=1;flowAnimation=1;strokeWidth=2;endArrow=block;endFill=1;" parent="1" source="1B1UQVx842eTG7SBvVWN-9" target="1B1UQVx842eTG7SBvVWN-10" edge="1">
          <mxGeometry relative="1" as="geometry" />
        </mxCell>
        <mxCell id="1B1UQVx842eTG7SBvVWN-9" value="Model" style="ellipse;whiteSpace=wrap;html=1;aspect=fixed;" parent="1" vertex="1">
          <mxGeometry x="182" y="508" width="80" height="80" as="geometry" />
        </mxCell>
        <mxCell id="1B1UQVx842eTG7SBvVWN-10" value="Output Parser" style="ellipse;whiteSpace=wrap;html=1;aspect=fixed;" parent="1" vertex="1">
          <mxGeometry x="182" y="622" width="80" height="80" as="geometry" />
        </mxCell>
        <mxCell id="1B1UQVx842eTG7SBvVWN-20" value="" style="edgeStyle=orthogonalEdgeStyle;rounded=0;orthogonalLoop=1;jettySize=auto;html=1;flowAnimation=1;strokeWidth=2;endArrow=block;endFill=1;" parent="1" source="1B1UQVx842eTG7SBvVWN-11" target="1B1UQVx842eTG7SBvVWN-13" edge="1">
          <mxGeometry relative="1" as="geometry" />
        </mxCell>
        <mxCell id="1B1UQVx842eTG7SBvVWN-11" value="Model" style="ellipse;whiteSpace=wrap;html=1;aspect=fixed;" parent="1" vertex="1">
          <mxGeometry x="366" y="511" width="80" height="80" as="geometry" />
        </mxCell>
        <mxCell id="1B1UQVx842eTG7SBvVWN-19" value="" style="edgeStyle=orthogonalEdgeStyle;rounded=0;orthogonalLoop=1;jettySize=auto;html=1;flowAnimation=1;strokeWidth=2;endArrow=block;endFill=1;" parent="1" source="1B1UQVx842eTG7SBvVWN-12" target="1B1UQVx842eTG7SBvVWN-11" edge="1">
          <mxGeometry relative="1" as="geometry" />
        </mxCell>
        <mxCell id="1B1UQVx842eTG7SBvVWN-12" value="Prompt" style="ellipse;whiteSpace=wrap;html=1;aspect=fixed;" parent="1" vertex="1">
          <mxGeometry x="366" y="396" width="80" height="80" as="geometry" />
        </mxCell>
        <mxCell id="1B1UQVx842eTG7SBvVWN-13" value="Output Parser" style="ellipse;whiteSpace=wrap;html=1;aspect=fixed;" parent="1" vertex="1">
          <mxGeometry x="366" y="625" width="80" height="80" as="geometry" />
        </mxCell>
        <mxCell id="1B1UQVx842eTG7SBvVWN-22" value="" style="edgeStyle=orthogonalEdgeStyle;rounded=0;orthogonalLoop=1;jettySize=auto;html=1;flowAnimation=1;strokeWidth=2;endArrow=block;endFill=1;" parent="1" source="1B1UQVx842eTG7SBvVWN-14" target="1B1UQVx842eTG7SBvVWN-16" edge="1">
          <mxGeometry relative="1" as="geometry" />
        </mxCell>
        <mxCell id="1B1UQVx842eTG7SBvVWN-14" value="Model" style="ellipse;whiteSpace=wrap;html=1;aspect=fixed;" parent="1" vertex="1">
          <mxGeometry x="546" y="508.5" width="80" height="80" as="geometry" />
        </mxCell>
        <mxCell id="1B1UQVx842eTG7SBvVWN-21" value="" style="edgeStyle=orthogonalEdgeStyle;rounded=0;orthogonalLoop=1;jettySize=auto;html=1;flowAnimation=1;strokeWidth=2;endArrow=block;endFill=1;" parent="1" source="1B1UQVx842eTG7SBvVWN-15" target="1B1UQVx842eTG7SBvVWN-14" edge="1">
          <mxGeometry relative="1" as="geometry" />
        </mxCell>
        <mxCell id="1B1UQVx842eTG7SBvVWN-15" value="Prompt" style="ellipse;whiteSpace=wrap;html=1;aspect=fixed;" parent="1" vertex="1">
          <mxGeometry x="546" y="393.5" width="80" height="80" as="geometry" />
        </mxCell>
        <mxCell id="1B1UQVx842eTG7SBvVWN-16" value="Output Parser" style="ellipse;whiteSpace=wrap;html=1;aspect=fixed;" parent="1" vertex="1">
          <mxGeometry x="546" y="622.5" width="80" height="80" as="geometry" />
        </mxCell>
        <mxCell id="1B1UQVx842eTG7SBvVWN-23" value="&lt;i&gt;generate message based&amp;nbsp;&lt;/i&gt;&lt;div&gt;&lt;i&gt;on the feedback&lt;/i&gt;&lt;/div&gt;" style="text;html=1;align=center;verticalAlign=middle;resizable=0;points=[];autosize=1;strokeColor=#b85450;fillColor=#f8cecc;" parent="1" vertex="1">
          <mxGeometry x="660" y="525" width="157" height="41" as="geometry" />
        </mxCell>
        <mxCell id="XCmW-cfN3lgO07VQ76bH-1" value="x" style="text;html=1;align=center;verticalAlign=middle;resizable=0;points=[];autosize=1;strokeColor=none;fillColor=none;" vertex="1" parent="1">
          <mxGeometry x="359" y="335" width="24" height="26" as="geometry" />
        </mxCell>
      </root>
    </mxGraphModel>
  </diagram>
  <diagram id="MdyVCAQNFW8iaFlxLq69" name="RAG Overview">
    <mxGraphModel dx="2924" dy="836" grid="0" gridSize="10" guides="1" tooltips="1" connect="1" arrows="1" fold="1" page="1" pageScale="1" pageWidth="850" pageHeight="1100" math="0" shadow="0">
      <root>
        <mxCell id="0" />
        <mxCell id="1" parent="0" />
        <mxCell id="GgD1tQsqJncE57JEMyqe-1" value="&lt;font style=&quot;font-size: 24px;&quot;&gt;&lt;b&gt;LLM Knowledge&lt;/b&gt;&lt;/font&gt;" style="ellipse;whiteSpace=wrap;html=1;aspect=fixed;fillStyle=zigzag-line;fillColor=#e1d5e7;strokeColor=#9673a6;" parent="1" vertex="1">
          <mxGeometry x="190" y="194" width="408" height="408" as="geometry" />
        </mxCell>
        <mxCell id="GgD1tQsqJncE57JEMyqe-8" style="edgeStyle=orthogonalEdgeStyle;rounded=0;orthogonalLoop=1;jettySize=auto;html=1;entryX=0;entryY=0;entryDx=0;entryDy=0;strokeWidth=3;flowAnimation=1;" parent="1" source="GgD1tQsqJncE57JEMyqe-3" target="GgD1tQsqJncE57JEMyqe-1" edge="1">
          <mxGeometry relative="1" as="geometry" />
        </mxCell>
        <mxCell id="GgD1tQsqJncE57JEMyqe-3" value="&lt;font style=&quot;font-size: 17px;&quot;&gt;Websites&lt;/font&gt;" style="ellipse;shape=cloud;whiteSpace=wrap;html=1;strokeWidth=4;" parent="1" vertex="1">
          <mxGeometry x="10" y="206" width="144" height="97" as="geometry" />
        </mxCell>
        <mxCell id="GgD1tQsqJncE57JEMyqe-9" style="edgeStyle=orthogonalEdgeStyle;rounded=0;orthogonalLoop=1;jettySize=auto;html=1;entryX=1;entryY=0;entryDx=0;entryDy=0;strokeWidth=3;flowAnimation=1;" parent="1" source="GgD1tQsqJncE57JEMyqe-4" target="GgD1tQsqJncE57JEMyqe-1" edge="1">
          <mxGeometry relative="1" as="geometry" />
        </mxCell>
        <mxCell id="GgD1tQsqJncE57JEMyqe-4" value="PDFs" style="html=1;verticalLabelPosition=bottom;align=center;labelBackgroundColor=#ffffff;verticalAlign=top;strokeWidth=4;strokeColor=#1A1A1A;shadow=0;dashed=0;shape=mxgraph.ios7.icons.documents;" parent="1" vertex="1">
          <mxGeometry x="691" y="211.5" width="88" height="86" as="geometry" />
        </mxCell>
        <mxCell id="GgD1tQsqJncE57JEMyqe-11" style="edgeStyle=orthogonalEdgeStyle;rounded=0;orthogonalLoop=1;jettySize=auto;html=1;entryX=0;entryY=1;entryDx=0;entryDy=0;strokeWidth=3;flowAnimation=1;" parent="1" source="GgD1tQsqJncE57JEMyqe-5" target="GgD1tQsqJncE57JEMyqe-1" edge="1">
          <mxGeometry relative="1" as="geometry" />
        </mxCell>
        <mxCell id="GgD1tQsqJncE57JEMyqe-5" value="Code" style="sketch=0;outlineConnect=0;fontColor=#232F3E;gradientColor=none;fillColor=#232F3D;strokeColor=none;dashed=0;verticalLabelPosition=bottom;verticalAlign=top;align=center;html=1;fontSize=12;fontStyle=0;aspect=fixed;pointerEvents=1;shape=mxgraph.aws4.source_code;" parent="1" vertex="1">
          <mxGeometry x="35" y="482" width="87.69" height="120" as="geometry" />
        </mxCell>
        <mxCell id="GgD1tQsqJncE57JEMyqe-10" style="edgeStyle=orthogonalEdgeStyle;rounded=0;orthogonalLoop=1;jettySize=auto;html=1;entryX=1;entryY=1;entryDx=0;entryDy=0;strokeWidth=3;flowAnimation=1;" parent="1" source="GgD1tQsqJncE57JEMyqe-7" target="GgD1tQsqJncE57JEMyqe-1" edge="1">
          <mxGeometry relative="1" as="geometry" />
        </mxCell>
        <mxCell id="GgD1tQsqJncE57JEMyqe-7" value="Video Transcripts" style="sketch=0;pointerEvents=1;shadow=0;dashed=0;html=1;strokeColor=none;fillColor=#505050;labelPosition=center;verticalLabelPosition=bottom;verticalAlign=top;outlineConnect=0;align=center;shape=mxgraph.office.concepts.script;" parent="1" vertex="1">
          <mxGeometry x="686" y="498" width="93" height="87" as="geometry" />
        </mxCell>
        <mxCell id="TFXClnIRzwjxsWONCUn1-1" value="&lt;font style=&quot;font-size: 72px;&quot;&gt;Retriever Augmented Generation&lt;/font&gt;" style="text;html=1;align=center;verticalAlign=middle;resizable=0;points=[];autosize=1;strokeColor=none;fillColor=none;" vertex="1" parent="1">
          <mxGeometry x="-116" y="13" width="1071" height="98" as="geometry" />
        </mxCell>
      </root>
    </mxGraphModel>
  </diagram>
  <diagram id="yB0WTUl6aQnhcIab5UlL" name="RAG Process">
    <mxGraphModel dx="3164" dy="870" grid="0" gridSize="10" guides="1" tooltips="1" connect="1" arrows="1" fold="1" page="1" pageScale="1" pageWidth="850" pageHeight="1100" math="0" shadow="0">
      <root>
        <mxCell id="0" />
        <mxCell id="1" parent="0" />
        <mxCell id="70zd_hcfjpLFzeG9sQwf-87" value="" style="rounded=1;whiteSpace=wrap;html=1;arcSize=1;fillStyle=hatch;fillColor=#ffe6cc;strokeColor=#d79b00;" parent="1" vertex="1">
          <mxGeometry x="-264" y="665" width="1301" height="355" as="geometry" />
        </mxCell>
        <mxCell id="70zd_hcfjpLFzeG9sQwf-78" value="" style="rounded=1;whiteSpace=wrap;html=1;fillColor=none;strokeColor=#0e8088;dashed=1;fontSize=12;" parent="1" vertex="1">
          <mxGeometry x="519" y="718.5" width="96" height="232" as="geometry" />
        </mxCell>
        <mxCell id="70zd_hcfjpLFzeG9sQwf-11" style="edgeStyle=orthogonalEdgeStyle;rounded=0;orthogonalLoop=1;jettySize=auto;html=1;exitX=0.5;exitY=1;exitDx=0;exitDy=0;entryX=0.5;entryY=0;entryDx=0;entryDy=0;flowAnimation=1;strokeWidth=3;fontSize=12;" parent="1" source="70zd_hcfjpLFzeG9sQwf-1" target="70zd_hcfjpLFzeG9sQwf-3" edge="1">
          <mxGeometry relative="1" as="geometry" />
        </mxCell>
        <mxCell id="70zd_hcfjpLFzeG9sQwf-12" style="edgeStyle=orthogonalEdgeStyle;rounded=0;orthogonalLoop=1;jettySize=auto;html=1;exitX=0.5;exitY=1;exitDx=0;exitDy=0;flowAnimation=1;strokeWidth=3;fontSize=12;" parent="1" source="70zd_hcfjpLFzeG9sQwf-1" target="70zd_hcfjpLFzeG9sQwf-5" edge="1">
          <mxGeometry relative="1" as="geometry" />
        </mxCell>
        <mxCell id="70zd_hcfjpLFzeG9sQwf-13" style="edgeStyle=orthogonalEdgeStyle;rounded=0;orthogonalLoop=1;jettySize=auto;html=1;flowAnimation=1;strokeWidth=3;fontSize=12;" parent="1" source="70zd_hcfjpLFzeG9sQwf-1" target="70zd_hcfjpLFzeG9sQwf-7" edge="1">
          <mxGeometry relative="1" as="geometry" />
        </mxCell>
        <mxCell id="70zd_hcfjpLFzeG9sQwf-14" style="edgeStyle=orthogonalEdgeStyle;rounded=0;orthogonalLoop=1;jettySize=auto;html=1;flowAnimation=1;strokeWidth=3;fontSize=12;" parent="1" source="70zd_hcfjpLFzeG9sQwf-1" target="70zd_hcfjpLFzeG9sQwf-6" edge="1">
          <mxGeometry relative="1" as="geometry" />
        </mxCell>
        <mxCell id="70zd_hcfjpLFzeG9sQwf-15" style="edgeStyle=orthogonalEdgeStyle;rounded=0;orthogonalLoop=1;jettySize=auto;html=1;exitX=0.5;exitY=1;exitDx=0;exitDy=0;flowAnimation=1;strokeWidth=3;fontSize=12;" parent="1" source="70zd_hcfjpLFzeG9sQwf-1" target="70zd_hcfjpLFzeG9sQwf-8" edge="1">
          <mxGeometry relative="1" as="geometry" />
        </mxCell>
        <mxCell id="70zd_hcfjpLFzeG9sQwf-1" value="" style="shape=image;html=1;verticalAlign=top;verticalLabelPosition=bottom;labelBackgroundColor=#ffffff;imageAspect=0;aspect=fixed;image=https://cdn3.iconfinder.com/data/icons/brands-applications/512/PDF-128.png;fontSize=12;" parent="1" vertex="1">
          <mxGeometry x="345" y="54" width="112" height="112" as="geometry" />
        </mxCell>
        <mxCell id="70zd_hcfjpLFzeG9sQwf-2" value="10M Tokens" style="text;html=1;align=center;verticalAlign=middle;resizable=0;points=[];autosize=1;strokeColor=none;fillColor=none;fontStyle=2;fontSize=12;" parent="1" vertex="1">
          <mxGeometry x="465" y="86" width="82" height="26" as="geometry" />
        </mxCell>
        <mxCell id="70zd_hcfjpLFzeG9sQwf-39" value="" style="edgeStyle=orthogonalEdgeStyle;rounded=0;orthogonalLoop=1;jettySize=auto;html=1;flowAnimation=1;strokeWidth=3;strokeColor=#7EA6E0;fontSize=12;" parent="1" source="70zd_hcfjpLFzeG9sQwf-3" target="70zd_hcfjpLFzeG9sQwf-17" edge="1">
          <mxGeometry relative="1" as="geometry" />
        </mxCell>
        <mxCell id="70zd_hcfjpLFzeG9sQwf-3" value="Chunk" style="rounded=1;whiteSpace=wrap;html=1;fillColor=#dae8fc;strokeColor=#6c8ebf;fontSize=12;" parent="1" vertex="1">
          <mxGeometry x="216" y="223" width="51" height="47" as="geometry" />
        </mxCell>
        <mxCell id="70zd_hcfjpLFzeG9sQwf-40" value="" style="edgeStyle=orthogonalEdgeStyle;rounded=0;orthogonalLoop=1;jettySize=auto;html=1;flowAnimation=1;strokeWidth=3;strokeColor=#7EA6E0;fontSize=12;" parent="1" source="70zd_hcfjpLFzeG9sQwf-5" target="70zd_hcfjpLFzeG9sQwf-18" edge="1">
          <mxGeometry relative="1" as="geometry" />
        </mxCell>
        <mxCell id="70zd_hcfjpLFzeG9sQwf-5" value="Chunk" style="rounded=1;whiteSpace=wrap;html=1;fillColor=#dae8fc;strokeColor=#6c8ebf;fontSize=12;" parent="1" vertex="1">
          <mxGeometry x="287" y="223" width="51" height="47" as="geometry" />
        </mxCell>
        <mxCell id="70zd_hcfjpLFzeG9sQwf-42" value="" style="edgeStyle=orthogonalEdgeStyle;rounded=0;orthogonalLoop=1;jettySize=auto;html=1;flowAnimation=1;strokeWidth=3;strokeColor=#7EA6E0;fontSize=12;" parent="1" source="70zd_hcfjpLFzeG9sQwf-6" target="70zd_hcfjpLFzeG9sQwf-22" edge="1">
          <mxGeometry relative="1" as="geometry" />
        </mxCell>
        <mxCell id="70zd_hcfjpLFzeG9sQwf-6" value="Chunk" style="rounded=1;whiteSpace=wrap;html=1;fillColor=#dae8fc;strokeColor=#6c8ebf;fontSize=12;" parent="1" vertex="1">
          <mxGeometry x="429" y="223" width="51" height="47" as="geometry" />
        </mxCell>
        <mxCell id="70zd_hcfjpLFzeG9sQwf-41" value="" style="edgeStyle=orthogonalEdgeStyle;rounded=0;orthogonalLoop=1;jettySize=auto;html=1;flowAnimation=1;strokeWidth=3;strokeColor=#7EA6E0;fontSize=12;" parent="1" source="70zd_hcfjpLFzeG9sQwf-7" target="70zd_hcfjpLFzeG9sQwf-21" edge="1">
          <mxGeometry relative="1" as="geometry" />
        </mxCell>
        <mxCell id="70zd_hcfjpLFzeG9sQwf-7" value="Chunk" style="rounded=1;whiteSpace=wrap;html=1;fillColor=#dae8fc;strokeColor=#6c8ebf;fontSize=12;" parent="1" vertex="1">
          <mxGeometry x="358" y="223" width="51" height="47" as="geometry" />
        </mxCell>
        <mxCell id="70zd_hcfjpLFzeG9sQwf-45" value="" style="edgeStyle=orthogonalEdgeStyle;rounded=0;orthogonalLoop=1;jettySize=auto;html=1;flowAnimation=1;strokeWidth=3;strokeColor=#7EA6E0;fontSize=12;" parent="1" source="70zd_hcfjpLFzeG9sQwf-8" target="70zd_hcfjpLFzeG9sQwf-23" edge="1">
          <mxGeometry relative="1" as="geometry" />
        </mxCell>
        <mxCell id="70zd_hcfjpLFzeG9sQwf-8" value="Chunk" style="rounded=1;whiteSpace=wrap;html=1;fillColor=#dae8fc;strokeColor=#6c8ebf;fontSize=12;" parent="1" vertex="1">
          <mxGeometry x="546" y="223" width="51" height="47" as="geometry" />
        </mxCell>
        <mxCell id="70zd_hcfjpLFzeG9sQwf-9" value="&lt;font style=&quot;font-size: 12px;&quot;&gt;&lt;b style=&quot;font-size: 12px;&quot;&gt;......&lt;/b&gt;&lt;/font&gt;" style="text;html=1;align=center;verticalAlign=middle;resizable=0;points=[];autosize=1;strokeColor=none;fillColor=none;fontSize=12;" parent="1" vertex="1">
          <mxGeometry x="493" y="235" width="38" height="26" as="geometry" />
        </mxCell>
        <mxCell id="70zd_hcfjpLFzeG9sQwf-16" value="Each Chunk = 1K Tokens" style="text;html=1;align=center;verticalAlign=middle;resizable=0;points=[];autosize=1;strokeColor=none;fillColor=none;fontStyle=2;fontSize=12;" parent="1" vertex="1">
          <mxGeometry x="614" y="234.5" width="153" height="26" as="geometry" />
        </mxCell>
        <mxCell id="70zd_hcfjpLFzeG9sQwf-46" value="" style="edgeStyle=orthogonalEdgeStyle;rounded=0;orthogonalLoop=1;jettySize=auto;html=1;flowAnimation=1;strokeWidth=3;strokeColor=#CC0066;fontSize=12;" parent="1" source="70zd_hcfjpLFzeG9sQwf-17" target="70zd_hcfjpLFzeG9sQwf-24" edge="1">
          <mxGeometry relative="1" as="geometry" />
        </mxCell>
        <mxCell id="70zd_hcfjpLFzeG9sQwf-17" value="" style="ellipse;whiteSpace=wrap;html=1;aspect=fixed;fillStyle=dots;fillColor=#d80073;strokeColor=#A50040;fontColor=#ffffff;shadow=0;fontSize=12;" parent="1" vertex="1">
          <mxGeometry x="220.5" y="319" width="42" height="42" as="geometry" />
        </mxCell>
        <mxCell id="70zd_hcfjpLFzeG9sQwf-47" value="" style="edgeStyle=orthogonalEdgeStyle;rounded=0;orthogonalLoop=1;jettySize=auto;html=1;flowAnimation=1;strokeWidth=3;strokeColor=#CC0066;fontSize=12;" parent="1" source="70zd_hcfjpLFzeG9sQwf-18" target="70zd_hcfjpLFzeG9sQwf-25" edge="1">
          <mxGeometry relative="1" as="geometry" />
        </mxCell>
        <mxCell id="70zd_hcfjpLFzeG9sQwf-18" value="" style="ellipse;whiteSpace=wrap;html=1;aspect=fixed;fillStyle=dots;fillColor=#d80073;strokeColor=#A50040;fontColor=#ffffff;shadow=0;fontSize=12;" parent="1" vertex="1">
          <mxGeometry x="291.5" y="319" width="42" height="42" as="geometry" />
        </mxCell>
        <mxCell id="70zd_hcfjpLFzeG9sQwf-48" value="" style="edgeStyle=orthogonalEdgeStyle;rounded=0;orthogonalLoop=1;jettySize=auto;html=1;flowAnimation=1;strokeWidth=3;strokeColor=#CC0066;fontSize=12;" parent="1" source="70zd_hcfjpLFzeG9sQwf-21" target="70zd_hcfjpLFzeG9sQwf-26" edge="1">
          <mxGeometry relative="1" as="geometry" />
        </mxCell>
        <mxCell id="70zd_hcfjpLFzeG9sQwf-21" value="" style="ellipse;whiteSpace=wrap;html=1;aspect=fixed;fillStyle=dots;fillColor=#d80073;strokeColor=#A50040;fontColor=#ffffff;shadow=0;fontSize=12;" parent="1" vertex="1">
          <mxGeometry x="363" y="319" width="42" height="42" as="geometry" />
        </mxCell>
        <mxCell id="70zd_hcfjpLFzeG9sQwf-49" value="" style="edgeStyle=orthogonalEdgeStyle;rounded=0;orthogonalLoop=1;jettySize=auto;html=1;flowAnimation=1;strokeWidth=3;strokeColor=#CC0066;fontSize=12;" parent="1" source="70zd_hcfjpLFzeG9sQwf-22" target="70zd_hcfjpLFzeG9sQwf-27" edge="1">
          <mxGeometry relative="1" as="geometry" />
        </mxCell>
        <mxCell id="70zd_hcfjpLFzeG9sQwf-22" value="" style="ellipse;whiteSpace=wrap;html=1;aspect=fixed;fillStyle=dots;fillColor=#d80073;strokeColor=#A50040;fontColor=#ffffff;shadow=0;fontSize=12;" parent="1" vertex="1">
          <mxGeometry x="434" y="319" width="42" height="42" as="geometry" />
        </mxCell>
        <mxCell id="70zd_hcfjpLFzeG9sQwf-51" style="edgeStyle=orthogonalEdgeStyle;rounded=0;orthogonalLoop=1;jettySize=auto;html=1;exitX=0.5;exitY=1;exitDx=0;exitDy=0;flowAnimation=1;strokeWidth=3;strokeColor=#CC0066;fontSize=12;" parent="1" source="70zd_hcfjpLFzeG9sQwf-23" target="70zd_hcfjpLFzeG9sQwf-28" edge="1">
          <mxGeometry relative="1" as="geometry" />
        </mxCell>
        <mxCell id="70zd_hcfjpLFzeG9sQwf-23" value="" style="ellipse;whiteSpace=wrap;html=1;aspect=fixed;fillStyle=dots;fillColor=#d80073;strokeColor=#A50040;fontColor=#ffffff;shadow=0;fontSize=12;" parent="1" vertex="1">
          <mxGeometry x="550.5" y="319" width="42" height="42" as="geometry" />
        </mxCell>
        <mxCell id="70zd_hcfjpLFzeG9sQwf-56" style="rounded=0;orthogonalLoop=1;jettySize=auto;html=1;flowAnimation=1;strokeWidth=3;strokeColor=#006633;fontSize=12;" parent="1" source="70zd_hcfjpLFzeG9sQwf-24" target="70zd_hcfjpLFzeG9sQwf-30" edge="1">
          <mxGeometry relative="1" as="geometry" />
        </mxCell>
        <mxCell id="70zd_hcfjpLFzeG9sQwf-24" value="[1,0,1,0&lt;div style=&quot;font-size: 12px;&quot;&gt;1, 1,0, 1]&lt;/div&gt;" style="rounded=1;whiteSpace=wrap;html=1;fillColor=#b0e3e6;strokeColor=#0e8088;fontSize=12;" parent="1" vertex="1">
          <mxGeometry x="216" y="406" width="51" height="47" as="geometry" />
        </mxCell>
        <mxCell id="70zd_hcfjpLFzeG9sQwf-57" style="rounded=0;orthogonalLoop=1;jettySize=auto;html=1;flowAnimation=1;strokeWidth=3;strokeColor=#006633;fontSize=12;" parent="1" source="70zd_hcfjpLFzeG9sQwf-25" target="70zd_hcfjpLFzeG9sQwf-30" edge="1">
          <mxGeometry relative="1" as="geometry">
            <mxPoint x="320.64759826660156" y="484.09940338134766" as="targetPoint" />
          </mxGeometry>
        </mxCell>
        <mxCell id="70zd_hcfjpLFzeG9sQwf-25" value="[1,0,1,0&lt;div style=&quot;font-size: 12px;&quot;&gt;1, 1,0, 1]&lt;/div&gt;" style="rounded=1;whiteSpace=wrap;html=1;fillColor=#b0e3e6;strokeColor=#0e8088;fontSize=12;" parent="1" vertex="1">
          <mxGeometry x="287" y="406" width="51" height="47" as="geometry" />
        </mxCell>
        <mxCell id="70zd_hcfjpLFzeG9sQwf-58" value="" style="rounded=0;orthogonalLoop=1;jettySize=auto;html=1;flowAnimation=1;strokeWidth=3;strokeColor=#006633;fontSize=12;" parent="1" source="70zd_hcfjpLFzeG9sQwf-26" target="70zd_hcfjpLFzeG9sQwf-30" edge="1">
          <mxGeometry relative="1" as="geometry" />
        </mxCell>
        <mxCell id="70zd_hcfjpLFzeG9sQwf-26" value="[1,0,1,0&lt;div style=&quot;font-size: 12px;&quot;&gt;1, 1,0, 1]&lt;/div&gt;" style="rounded=1;whiteSpace=wrap;html=1;fillColor=#b0e3e6;strokeColor=#0e8088;fontSize=12;" parent="1" vertex="1">
          <mxGeometry x="358" y="406" width="51" height="47" as="geometry" />
        </mxCell>
        <mxCell id="70zd_hcfjpLFzeG9sQwf-59" value="" style="rounded=0;orthogonalLoop=1;jettySize=auto;html=1;flowAnimation=1;strokeWidth=3;strokeColor=#006633;fontSize=12;" parent="1" source="70zd_hcfjpLFzeG9sQwf-27" target="70zd_hcfjpLFzeG9sQwf-30" edge="1">
          <mxGeometry relative="1" as="geometry" />
        </mxCell>
        <mxCell id="70zd_hcfjpLFzeG9sQwf-27" value="[1,0,1,0&lt;div style=&quot;font-size: 12px;&quot;&gt;1, 1,0, 1]&lt;/div&gt;" style="rounded=1;whiteSpace=wrap;html=1;fillColor=#b0e3e6;strokeColor=#0e8088;fontSize=12;" parent="1" vertex="1">
          <mxGeometry x="429" y="406" width="51" height="47" as="geometry" />
        </mxCell>
        <mxCell id="70zd_hcfjpLFzeG9sQwf-60" value="" style="rounded=0;orthogonalLoop=1;jettySize=auto;html=1;flowAnimation=1;strokeWidth=3;strokeColor=#006633;fontSize=12;" parent="1" source="70zd_hcfjpLFzeG9sQwf-28" target="70zd_hcfjpLFzeG9sQwf-30" edge="1">
          <mxGeometry relative="1" as="geometry" />
        </mxCell>
        <mxCell id="70zd_hcfjpLFzeG9sQwf-28" value="[1,0,1,0&lt;div style=&quot;font-size: 12px;&quot;&gt;1, 1,0, 1]&lt;/div&gt;" style="rounded=1;whiteSpace=wrap;html=1;fillColor=#b0e3e6;strokeColor=#0e8088;fontSize=12;" parent="1" vertex="1">
          <mxGeometry x="546" y="406" width="51" height="47" as="geometry" />
        </mxCell>
        <mxCell id="70zd_hcfjpLFzeG9sQwf-86" style="edgeStyle=orthogonalEdgeStyle;rounded=0;orthogonalLoop=1;jettySize=auto;html=1;shape=link;flowAnimation=1;strokeWidth=3;" parent="1" source="70zd_hcfjpLFzeG9sQwf-30" target="70zd_hcfjpLFzeG9sQwf-70" edge="1">
          <mxGeometry relative="1" as="geometry" />
        </mxCell>
        <mxCell id="70zd_hcfjpLFzeG9sQwf-30" value="Vector Storage" style="strokeWidth=1;html=1;shape=mxgraph.flowchart.database;whiteSpace=wrap;fontSize=12;fillColor=#67AB9F;fontColor=#ffffff;strokeColor=#6F0000;fillStyle=auto;gradientColor=default;" parent="1" vertex="1">
          <mxGeometry x="333.5" y="518" width="146" height="119" as="geometry" />
        </mxCell>
        <mxCell id="70zd_hcfjpLFzeG9sQwf-31" value="LLM Embedder Convert Text to Embeddings&lt;div style=&quot;font-size: 12px;&quot;&gt;(This part costs $$$)&lt;/div&gt;" style="text;html=1;align=center;verticalAlign=middle;resizable=0;points=[];autosize=1;strokeColor=none;fillColor=none;fontStyle=2;fontSize=12;" parent="1" vertex="1">
          <mxGeometry x="604" y="321" width="254" height="41" as="geometry" />
        </mxCell>
        <mxCell id="70zd_hcfjpLFzeG9sQwf-32" value="Embedding = numerical representation of text" style="text;html=1;align=center;verticalAlign=middle;resizable=0;points=[];autosize=1;strokeColor=none;fillColor=none;fontStyle=2;fontSize=12;" parent="1" vertex="1">
          <mxGeometry x="601" y="423" width="260" height="26" as="geometry" />
        </mxCell>
        <mxCell id="70zd_hcfjpLFzeG9sQwf-33" value="Store Embeddings" style="text;html=1;align=center;verticalAlign=middle;resizable=0;points=[];autosize=1;strokeColor=none;fillColor=none;fontStyle=2;fontSize=12;" parent="1" vertex="1">
          <mxGeometry x="498" y="564.5" width="117" height="26" as="geometry" />
        </mxCell>
        <mxCell id="70zd_hcfjpLFzeG9sQwf-35" style="rounded=0;orthogonalLoop=1;jettySize=auto;html=1;exitX=1;exitY=0.5;exitDx=0;exitDy=0;endArrow=none;endFill=0;fillColor=#eeeeee;strokeColor=#36393d;fontSize=12;" parent="1" source="70zd_hcfjpLFzeG9sQwf-34" target="70zd_hcfjpLFzeG9sQwf-3" edge="1">
          <mxGeometry relative="1" as="geometry" />
        </mxCell>
        <mxCell id="70zd_hcfjpLFzeG9sQwf-34" value="&lt;font style=&quot;font-size: 12px;&quot;&gt;&lt;b style=&quot;font-size: 12px;&quot;&gt;Sample Chunk&lt;/b&gt;&lt;/font&gt;&lt;div style=&quot;font-size: 12px;&quot;&gt;&lt;font style=&quot;font-size: 12px;&quot;&gt;&quot;&quot;&quot;&lt;/font&gt;&lt;/div&gt;&lt;div style=&quot;font-size: 12px;&quot;&gt;&lt;div style=&quot;font-size: 12px;&quot;&gt;&lt;i style=&quot;font-size: 12px;&quot;&gt;&lt;font style=&quot;font-size: 12px;&quot;&gt;Harry went back to his toast. Of course, he thought bitterly, &lt;u&gt;Un&lt;/u&gt;&lt;/font&gt;&lt;span style=&quot;background-color: initial; font-size: 12px;&quot;&gt;&lt;u&gt;cle Vernon was talking about the stupid dinner party&lt;/u&gt;. He&#39;d been talk&lt;/span&gt;&lt;span style=&quot;background-color: initial; font-size: 12px;&quot;&gt;ing of nothing else for two weeks.&lt;/span&gt;&lt;/i&gt;&lt;/div&gt;&lt;/div&gt;&lt;div style=&quot;font-size: 12px;&quot;&gt;&lt;font style=&quot;font-size: 12px;&quot;&gt;&quot;&quot;&quot;&lt;/font&gt;&lt;/div&gt;" style="rounded=1;whiteSpace=wrap;html=1;align=left;spacingLeft=10;fontFamily=Courier New;dashed=1;fillColor=#eeeeee;strokeColor=#36393d;fontSize=12;" parent="1" vertex="1">
          <mxGeometry x="-82" y="156" width="213" height="181" as="geometry" />
        </mxCell>
        <mxCell id="70zd_hcfjpLFzeG9sQwf-36" value="&lt;font style=&quot;font-size: 12px;&quot;&gt;Sample Embedding&lt;/font&gt;&lt;div style=&quot;font-size: 12px;&quot;&gt;&lt;span style=&quot;font-size: 12px;&quot;&gt;&lt;b style=&quot;font-size: 12px;&quot;&gt;&lt;br style=&quot;font-size: 12px;&quot;&gt;&lt;/b&gt;&lt;/span&gt;&lt;div style=&quot;font-size: 12px;&quot;&gt;&lt;font style=&quot;font-size: 12px;&quot;&gt;&lt;b style=&quot;font-size: 12px;&quot;&gt;Dog = [1,1,2,4,1,1,1,1]&lt;/b&gt;&lt;/font&gt;&lt;/div&gt;&lt;div style=&quot;font-size: 12px;&quot;&gt;&lt;font style=&quot;font-size: 12px;&quot;&gt;&lt;b style=&quot;font-size: 12px;&quot;&gt;Cat = [1,4,3,4,1,1,4,2]&lt;/b&gt;&lt;/font&gt;&lt;/div&gt;&lt;div style=&quot;font-size: 12px;&quot;&gt;&lt;span style=&quot;font-size: 12px;&quot;&gt;&lt;b style=&quot;font-size: 12px;&quot;&gt;Pen = [4,2,1,1,3,0,4,8]&lt;/b&gt;&lt;/span&gt;&lt;/div&gt;&lt;/div&gt;" style="rounded=1;whiteSpace=wrap;html=1;align=left;spacingLeft=10;fontFamily=Courier New;dashed=1;fillColor=#eeeeee;strokeColor=#36393d;fontSize=12;" parent="1" vertex="1">
          <mxGeometry x="-73" y="371" width="201" height="117" as="geometry" />
        </mxCell>
        <mxCell id="70zd_hcfjpLFzeG9sQwf-37" style="rounded=0;orthogonalLoop=1;jettySize=auto;html=1;endArrow=none;endFill=0;fillColor=#eeeeee;strokeColor=#36393d;fontSize=12;" parent="1" source="70zd_hcfjpLFzeG9sQwf-36" target="70zd_hcfjpLFzeG9sQwf-24" edge="1">
          <mxGeometry relative="1" as="geometry">
            <mxPoint x="122" y="198" as="sourcePoint" />
            <mxPoint x="226" y="245" as="targetPoint" />
          </mxGeometry>
        </mxCell>
        <mxCell id="70zd_hcfjpLFzeG9sQwf-38" value="&lt;font style=&quot;font-size: 12px;&quot;&gt;&lt;b style=&quot;font-size: 12px;&quot;&gt;......&lt;/b&gt;&lt;/font&gt;" style="text;html=1;align=center;verticalAlign=middle;resizable=0;points=[];autosize=1;strokeColor=none;fillColor=none;fontSize=12;" parent="1" vertex="1">
          <mxGeometry x="498" y="418" width="38" height="26" as="geometry" />
        </mxCell>
        <mxCell id="70zd_hcfjpLFzeG9sQwf-71" value="" style="edgeStyle=orthogonalEdgeStyle;rounded=0;orthogonalLoop=1;jettySize=auto;html=1;fontSize=12;flowAnimation=1;strokeWidth=3;" parent="1" source="70zd_hcfjpLFzeG9sQwf-65" target="70zd_hcfjpLFzeG9sQwf-67" edge="1">
          <mxGeometry relative="1" as="geometry" />
        </mxCell>
        <mxCell id="70zd_hcfjpLFzeG9sQwf-65" value="" style="sketch=0;outlineConnect=0;fontColor=#232F3E;gradientColor=none;fillColor=#232F3D;strokeColor=none;dashed=0;verticalLabelPosition=bottom;verticalAlign=top;align=center;html=1;fontSize=12;fontStyle=0;aspect=fixed;pointerEvents=1;shape=mxgraph.aws4.user;strokeWidth=1;" parent="1" vertex="1">
          <mxGeometry x="-205" y="795" width="78" height="78" as="geometry" />
        </mxCell>
        <mxCell id="70zd_hcfjpLFzeG9sQwf-73" value="" style="edgeStyle=orthogonalEdgeStyle;rounded=0;orthogonalLoop=1;jettySize=auto;html=1;fontSize=12;flowAnimation=1;strokeWidth=3;fillColor=#d80073;strokeColor=#A50040;" parent="1" source="70zd_hcfjpLFzeG9sQwf-66" target="70zd_hcfjpLFzeG9sQwf-69" edge="1">
          <mxGeometry relative="1" as="geometry" />
        </mxCell>
        <mxCell id="70zd_hcfjpLFzeG9sQwf-66" value="" style="ellipse;whiteSpace=wrap;html=1;aspect=fixed;fillStyle=dots;fillColor=#d80073;strokeColor=#A50040;fontColor=#ffffff;shadow=0;fontSize=12;" parent="1" vertex="1">
          <mxGeometry x="132" y="813" width="42" height="42" as="geometry" />
        </mxCell>
        <mxCell id="70zd_hcfjpLFzeG9sQwf-72" value="" style="edgeStyle=orthogonalEdgeStyle;rounded=0;orthogonalLoop=1;jettySize=auto;html=1;fontSize=12;flowAnimation=1;strokeWidth=3;fillColor=#b0e3e6;strokeColor=#0e8088;" parent="1" source="70zd_hcfjpLFzeG9sQwf-67" target="70zd_hcfjpLFzeG9sQwf-66" edge="1">
          <mxGeometry relative="1" as="geometry" />
        </mxCell>
        <mxCell id="70zd_hcfjpLFzeG9sQwf-67" value="Question" style="ellipse;whiteSpace=wrap;html=1;fontSize=12;fillColor=#b1ddf0;strokeColor=#10739e;" parent="1" vertex="1">
          <mxGeometry x="-52" y="802" width="108" height="64" as="geometry" />
        </mxCell>
        <mxCell id="70zd_hcfjpLFzeG9sQwf-74" value="" style="edgeStyle=orthogonalEdgeStyle;rounded=0;orthogonalLoop=1;jettySize=auto;html=1;fontSize=12;flowAnimation=1;strokeWidth=3;fillColor=#fad9d5;strokeColor=#ae4132;" parent="1" source="70zd_hcfjpLFzeG9sQwf-69" target="70zd_hcfjpLFzeG9sQwf-70" edge="1">
          <mxGeometry relative="1" as="geometry" />
        </mxCell>
        <mxCell id="70zd_hcfjpLFzeG9sQwf-69" value="[1,0,1,0&lt;div style=&quot;font-size: 12px;&quot;&gt;1, 1,0, 1]&lt;/div&gt;" style="rounded=1;whiteSpace=wrap;html=1;fillColor=#e1d5e7;strokeColor=#9673a6;fontSize=12;" parent="1" vertex="1">
          <mxGeometry x="246" y="810.5" width="51" height="47" as="geometry" />
        </mxCell>
        <mxCell id="70zd_hcfjpLFzeG9sQwf-79" value="" style="edgeStyle=orthogonalEdgeStyle;rounded=0;orthogonalLoop=1;jettySize=auto;html=1;fontSize=12;flowAnimation=1;strokeWidth=3;" parent="1" source="70zd_hcfjpLFzeG9sQwf-70" target="70zd_hcfjpLFzeG9sQwf-78" edge="1">
          <mxGeometry relative="1" as="geometry" />
        </mxCell>
        <mxCell id="70zd_hcfjpLFzeG9sQwf-70" value="Retriever" style="rhombus;whiteSpace=wrap;html=1;rounded=1;fontSize=12;" parent="1" vertex="1">
          <mxGeometry x="347.5" y="777" width="118" height="114" as="geometry" />
        </mxCell>
        <mxCell id="70zd_hcfjpLFzeG9sQwf-75" value="Chunk 3" style="rounded=1;whiteSpace=wrap;html=1;fillColor=#cce5ff;strokeColor=#36393d;fontSize=12;" parent="1" vertex="1">
          <mxGeometry x="540" y="811" width="51" height="47" as="geometry" />
        </mxCell>
        <mxCell id="70zd_hcfjpLFzeG9sQwf-76" value="Chunk 1" style="rounded=1;whiteSpace=wrap;html=1;fillColor=#cce5ff;strokeColor=#36393d;fontSize=12;" parent="1" vertex="1">
          <mxGeometry x="540" y="749" width="51" height="47" as="geometry" />
        </mxCell>
        <mxCell id="70zd_hcfjpLFzeG9sQwf-77" value="Chunk 6" style="rounded=1;whiteSpace=wrap;html=1;fillColor=#cce5ff;strokeColor=#36393d;fontSize=12;" parent="1" vertex="1">
          <mxGeometry x="541.5" y="872" width="51" height="47" as="geometry" />
        </mxCell>
        <mxCell id="70zd_hcfjpLFzeG9sQwf-81" value="" style="edgeStyle=orthogonalEdgeStyle;rounded=0;orthogonalLoop=1;jettySize=auto;html=1;fontSize=12;flowAnimation=1;strokeWidth=3;" parent="1" source="70zd_hcfjpLFzeG9sQwf-78" target="70zd_hcfjpLFzeG9sQwf-80" edge="1">
          <mxGeometry relative="1" as="geometry" />
        </mxCell>
        <mxCell id="70zd_hcfjpLFzeG9sQwf-84" style="edgeStyle=orthogonalEdgeStyle;rounded=1;orthogonalLoop=1;jettySize=auto;html=1;curved=0;fontSize=12;flowAnimation=1;strokeWidth=3;" parent="1" edge="1">
          <mxGeometry relative="1" as="geometry">
            <Array as="points">
              <mxPoint x="963" y="821.55" />
              <mxPoint x="963" y="992.55" />
              <mxPoint x="-166" y="992.55" />
            </Array>
            <mxPoint x="913.645384302562" y="821.0045454545455" as="sourcePoint" />
            <mxPoint x="-165.909090909091" y="859.55" as="targetPoint" />
          </mxGeometry>
        </mxCell>
        <mxCell id="70zd_hcfjpLFzeG9sQwf-85" value="AI Response" style="edgeLabel;html=1;align=center;verticalAlign=middle;resizable=0;points=[];fontSize=17;" parent="70zd_hcfjpLFzeG9sQwf-84" vertex="1" connectable="0">
          <mxGeometry x="0.0913" y="-2" relative="1" as="geometry">
            <mxPoint x="6" y="-15" as="offset" />
          </mxGeometry>
        </mxCell>
        <mxCell id="70zd_hcfjpLFzeG9sQwf-80" value="&lt;font style=&quot;font-size: 12px;&quot; color=&quot;#1a1a1a&quot;&gt;&lt;i style=&quot;font-size: 12px;&quot;&gt;Model&lt;/i&gt;&lt;/font&gt;" style="sketch=0;outlineConnect=0;fontColor=#ffffff;fillColor=#a20025;strokeColor=#6F0000;dashed=0;verticalLabelPosition=bottom;verticalAlign=top;align=center;html=1;fontSize=12;fontStyle=0;aspect=fixed;pointerEvents=1;shape=mxgraph.aws4.sagemaker_model;" parent="1" vertex="1">
          <mxGeometry x="818" y="786.5" width="96" height="96" as="geometry" />
        </mxCell>
        <mxCell id="70zd_hcfjpLFzeG9sQwf-82" value="&lt;div style=&quot;font-size: 12px;&quot;&gt;&lt;span style=&quot;font-size: 12px;&quot;&gt;&lt;b style=&quot;font-size: 12px;&quot;&gt;&quot;&quot;&quot;&lt;/b&gt;&lt;/span&gt;&lt;/div&gt;&lt;div style=&quot;font-size: 12px;&quot;&gt;&lt;span style=&quot;font-size: 12px;&quot;&gt;&lt;b style=&quot;font-size: 12px;&quot;&gt;Given&lt;/b&gt;&lt;/span&gt;&lt;/div&gt;&lt;div style=&quot;font-size: 12px;&quot;&gt;&lt;span style=&quot;font-size: 12px;&quot;&gt;&lt;b style=&quot;font-size: 12px;&quot;&gt;&amp;nbsp; Chunk 1 Text&lt;/b&gt;&lt;/span&gt;&lt;/div&gt;&lt;div style=&quot;font-size: 12px;&quot;&gt;&lt;span style=&quot;font-size: 12px;&quot;&gt;&lt;b style=&quot;font-size: 12px;&quot;&gt;&amp;nbsp; Chunk 2 Text&lt;br style=&quot;font-size: 12px;&quot;&gt;&lt;/b&gt;&lt;/span&gt;&lt;span style=&quot;font-size: 12px;&quot;&gt;&lt;b style=&quot;font-size: 12px;&quot;&gt;&amp;nbsp; Chunk 3 Text&lt;/b&gt;&lt;/span&gt;&lt;/div&gt;&lt;div style=&quot;font-size: 12px;&quot;&gt;&lt;span style=&quot;font-size: 12px;&quot;&gt;&lt;b style=&quot;font-size: 12px;&quot;&gt;&lt;br style=&quot;font-size: 12px;&quot;&gt;&lt;/b&gt;&lt;/span&gt;&lt;/div&gt;&lt;div style=&quot;font-size: 12px;&quot;&gt;&lt;span style=&quot;font-size: 12px;&quot;&gt;&lt;b style=&quot;font-size: 12px;&quot;&gt;Question&lt;/b&gt;&lt;/span&gt;&lt;/div&gt;&lt;div style=&quot;font-size: 12px;&quot;&gt;&lt;span style=&quot;font-size: 12px;&quot;&gt;&lt;b style=&quot;font-size: 12px;&quot;&gt;&lt;span style=&quot;white-space: pre; font-size: 12px;&quot;&gt;&#x9;&lt;/span&gt;....&lt;br style=&quot;font-size: 12px;&quot;&gt;&lt;/b&gt;&lt;/span&gt;&lt;div style=&quot;font-size: 12px;&quot;&gt;&lt;span style=&quot;font-size: 12px;&quot;&gt;&lt;b style=&quot;font-size: 12px;&quot;&gt;&quot;&quot;&quot;&lt;/b&gt;&lt;/span&gt;&lt;/div&gt;&lt;/div&gt;" style="rounded=1;whiteSpace=wrap;html=1;align=left;spacingLeft=10;fontFamily=Courier New;dashed=1;fillColor=#eeeeee;strokeColor=#36393d;fontSize=12;" parent="1" vertex="1">
          <mxGeometry x="628" y="690" width="177" height="138" as="geometry" />
        </mxCell>
        <mxCell id="70zd_hcfjpLFzeG9sQwf-83" value="&lt;i style=&quot;font-size: 12px;&quot;&gt;Prompt&lt;/i&gt;" style="text;html=1;align=center;verticalAlign=middle;resizable=0;points=[];autosize=1;strokeColor=none;fillColor=none;fontSize=12;" parent="1" vertex="1">
          <mxGeometry x="692.5" y="833" width="57" height="26" as="geometry" />
        </mxCell>
        <mxCell id="70zd_hcfjpLFzeG9sQwf-88" value="1" style="ellipse;whiteSpace=wrap;html=1;aspect=fixed;rotation=0;gradientColor=#0057D2;strokeColor=none;gradientDirection=east;fillColor=#2395FF;rounded=0;pointerEvents=0;fontFamily=Helvetica;fontSize=16;fontColor=#FFFFFF;spacingTop=4;spacingBottom=4;spacingLeft=4;spacingRight=4;points=[];fontStyle=1" parent="1" vertex="1">
          <mxGeometry x="-13" y="757.5" width="30" height="30" as="geometry" />
        </mxCell>
        <mxCell id="70zd_hcfjpLFzeG9sQwf-89" value="2" style="ellipse;whiteSpace=wrap;html=1;aspect=fixed;rotation=0;gradientColor=#0057D2;strokeColor=none;gradientDirection=east;fillColor=#2395FF;rounded=0;pointerEvents=0;fontFamily=Helvetica;fontSize=16;fontColor=#FFFFFF;spacingTop=4;spacingBottom=4;spacingLeft=4;spacingRight=4;points=[];fontStyle=1" parent="1" vertex="1">
          <mxGeometry x="138" y="757.5" width="30" height="30" as="geometry" />
        </mxCell>
        <mxCell id="70zd_hcfjpLFzeG9sQwf-90" value="3" style="ellipse;whiteSpace=wrap;html=1;aspect=fixed;rotation=0;gradientColor=#0057D2;strokeColor=none;gradientDirection=east;fillColor=#2395FF;rounded=0;pointerEvents=0;fontFamily=Helvetica;fontSize=16;fontColor=#FFFFFF;spacingTop=4;spacingBottom=4;spacingLeft=4;spacingRight=4;points=[];fontStyle=1" parent="1" vertex="1">
          <mxGeometry x="249" y="757.5" width="30" height="30" as="geometry" />
        </mxCell>
        <mxCell id="70zd_hcfjpLFzeG9sQwf-91" value="6" style="ellipse;whiteSpace=wrap;html=1;aspect=fixed;rotation=0;gradientColor=#0057D2;strokeColor=none;gradientDirection=east;fillColor=#2395FF;rounded=0;pointerEvents=0;fontFamily=Helvetica;fontSize=16;fontColor=#FFFFFF;spacingTop=4;spacingBottom=4;spacingLeft=4;spacingRight=4;points=[];fontStyle=1" parent="1" vertex="1">
          <mxGeometry x="850" y="760" width="30" height="30" as="geometry" />
        </mxCell>
        <mxCell id="70zd_hcfjpLFzeG9sQwf-92" value="4" style="ellipse;whiteSpace=wrap;html=1;aspect=fixed;rotation=0;gradientColor=#0057D2;strokeColor=none;gradientDirection=east;fillColor=#2395FF;rounded=0;pointerEvents=0;fontFamily=Helvetica;fontSize=16;fontColor=#FFFFFF;spacingTop=4;spacingBottom=4;spacingLeft=4;spacingRight=4;points=[];fontStyle=1" parent="1" vertex="1">
          <mxGeometry x="366" y="756.5" width="30" height="30" as="geometry" />
        </mxCell>
        <mxCell id="70zd_hcfjpLFzeG9sQwf-93" value="5" style="ellipse;whiteSpace=wrap;html=1;aspect=fixed;rotation=0;gradientColor=#0057D2;strokeColor=none;gradientDirection=east;fillColor=#2395FF;rounded=0;pointerEvents=0;fontFamily=Helvetica;fontSize=16;fontColor=#FFFFFF;spacingTop=4;spacingBottom=4;spacingLeft=4;spacingRight=4;points=[];fontStyle=1" parent="1" vertex="1">
          <mxGeometry x="480" y="757.5" width="30" height="30" as="geometry" />
        </mxCell>
      </root>
    </mxGraphModel>
  </diagram>
  <diagram id="ppi_8gapistws5sCSzTF" name="LLM Flow">
    <mxGraphModel dx="830" dy="334" grid="1" gridSize="10" guides="1" tooltips="1" connect="1" arrows="1" fold="1" page="1" pageScale="1" pageWidth="850" pageHeight="1100" math="0" shadow="0">
      <root>
        <mxCell id="0" />
        <mxCell id="1" parent="0" />
        <mxCell id="nGODurxmm5sUnsPZHwpg-3" value="" style="edgeStyle=orthogonalEdgeStyle;rounded=0;orthogonalLoop=1;jettySize=auto;html=1;flowAnimation=1;" edge="1" parent="1" source="nGODurxmm5sUnsPZHwpg-1" target="nGODurxmm5sUnsPZHwpg-2">
          <mxGeometry relative="1" as="geometry" />
        </mxCell>
        <mxCell id="nGODurxmm5sUnsPZHwpg-1" value="Start" style="ellipse;whiteSpace=wrap;html=1;aspect=fixed;sketch=1;curveFitting=1;jiggle=2;" vertex="1" parent="1">
          <mxGeometry x="70" y="40" width="80" height="80" as="geometry" />
        </mxCell>
        <mxCell id="nGODurxmm5sUnsPZHwpg-5" value="" style="edgeStyle=orthogonalEdgeStyle;rounded=0;orthogonalLoop=1;jettySize=auto;html=1;flowAnimation=1;" edge="1" parent="1" source="nGODurxmm5sUnsPZHwpg-2" target="nGODurxmm5sUnsPZHwpg-4">
          <mxGeometry relative="1" as="geometry" />
        </mxCell>
        <mxCell id="nGODurxmm5sUnsPZHwpg-2" value="Step 1" style="ellipse;whiteSpace=wrap;html=1;aspect=fixed;sketch=1;curveFitting=1;jiggle=2;fillColor=#fad9d5;strokeColor=#ae4132;" vertex="1" parent="1">
          <mxGeometry x="230" y="40" width="80" height="80" as="geometry" />
        </mxCell>
        <mxCell id="nGODurxmm5sUnsPZHwpg-7" value="" style="edgeStyle=orthogonalEdgeStyle;rounded=0;orthogonalLoop=1;jettySize=auto;html=1;flowAnimation=1;" edge="1" parent="1" source="nGODurxmm5sUnsPZHwpg-4" target="nGODurxmm5sUnsPZHwpg-6">
          <mxGeometry relative="1" as="geometry" />
        </mxCell>
        <mxCell id="nGODurxmm5sUnsPZHwpg-4" value="Step 2" style="ellipse;whiteSpace=wrap;html=1;aspect=fixed;sketch=1;curveFitting=1;jiggle=2;fillColor=#fad9d5;strokeColor=#ae4132;" vertex="1" parent="1">
          <mxGeometry x="390" y="40" width="80" height="80" as="geometry" />
        </mxCell>
        <mxCell id="nGODurxmm5sUnsPZHwpg-6" value="End" style="ellipse;whiteSpace=wrap;html=1;aspect=fixed;sketch=1;curveFitting=1;jiggle=2;" vertex="1" parent="1">
          <mxGeometry x="550" y="40" width="80" height="80" as="geometry" />
        </mxCell>
        <mxCell id="nGODurxmm5sUnsPZHwpg-8" value="&lt;b&gt;LLM Applications follow a control flow&lt;/b&gt;" style="text;html=1;align=center;verticalAlign=middle;resizable=0;points=[];autosize=1;strokeColor=none;fillColor=none;" vertex="1" parent="1">
          <mxGeometry x="230" width="240" height="30" as="geometry" />
        </mxCell>
        <mxCell id="nGODurxmm5sUnsPZHwpg-9" value="&lt;b&gt;RAG = Chains that have a &lt;u&gt;developer defined&lt;/u&gt; flow&lt;/b&gt;" style="text;html=1;align=center;verticalAlign=middle;resizable=0;points=[];autosize=1;strokeColor=none;fillColor=none;" vertex="1" parent="1">
          <mxGeometry x="155" y="230" width="300" height="30" as="geometry" />
        </mxCell>
        <mxCell id="nGODurxmm5sUnsPZHwpg-10" value="" style="edgeStyle=orthogonalEdgeStyle;rounded=0;orthogonalLoop=1;jettySize=auto;html=1;flowAnimation=1;" edge="1" source="nGODurxmm5sUnsPZHwpg-11" target="nGODurxmm5sUnsPZHwpg-13" parent="1">
          <mxGeometry relative="1" as="geometry" />
        </mxCell>
        <mxCell id="nGODurxmm5sUnsPZHwpg-11" value="Question" style="ellipse;whiteSpace=wrap;html=1;aspect=fixed;sketch=1;curveFitting=1;jiggle=2;" vertex="1" parent="1">
          <mxGeometry x="50" y="280" width="80" height="80" as="geometry" />
        </mxCell>
        <mxCell id="nGODurxmm5sUnsPZHwpg-12" value="" style="edgeStyle=orthogonalEdgeStyle;rounded=0;orthogonalLoop=1;jettySize=auto;html=1;flowAnimation=1;" edge="1" source="nGODurxmm5sUnsPZHwpg-13" target="nGODurxmm5sUnsPZHwpg-15" parent="1">
          <mxGeometry relative="1" as="geometry" />
        </mxCell>
        <mxCell id="nGODurxmm5sUnsPZHwpg-13" value="Vectorstore" style="ellipse;whiteSpace=wrap;html=1;aspect=fixed;sketch=1;curveFitting=1;jiggle=2;fillColor=#fad9d5;strokeColor=#ae4132;" vertex="1" parent="1">
          <mxGeometry x="210" y="280" width="80" height="80" as="geometry" />
        </mxCell>
        <mxCell id="nGODurxmm5sUnsPZHwpg-14" value="" style="edgeStyle=orthogonalEdgeStyle;rounded=0;orthogonalLoop=1;jettySize=auto;html=1;flowAnimation=1;" edge="1" source="nGODurxmm5sUnsPZHwpg-15" target="nGODurxmm5sUnsPZHwpg-16" parent="1">
          <mxGeometry relative="1" as="geometry" />
        </mxCell>
        <mxCell id="nGODurxmm5sUnsPZHwpg-15" value="LLM" style="ellipse;whiteSpace=wrap;html=1;aspect=fixed;sketch=1;curveFitting=1;jiggle=2;fillColor=#fad9d5;strokeColor=#ae4132;" vertex="1" parent="1">
          <mxGeometry x="370" y="280" width="80" height="80" as="geometry" />
        </mxCell>
        <mxCell id="nGODurxmm5sUnsPZHwpg-16" value="Answer" style="ellipse;whiteSpace=wrap;html=1;aspect=fixed;sketch=1;curveFitting=1;jiggle=2;" vertex="1" parent="1">
          <mxGeometry x="530" y="280" width="80" height="80" as="geometry" />
        </mxCell>
        <mxCell id="nGODurxmm5sUnsPZHwpg-25" value="&lt;b&gt;Agent = &lt;u&gt;LLM defined&lt;/u&gt; defined flow&lt;/b&gt;" style="text;html=1;align=center;verticalAlign=middle;resizable=0;points=[];autosize=1;strokeColor=none;fillColor=none;" vertex="1" parent="1">
          <mxGeometry x="195" y="440" width="220" height="30" as="geometry" />
        </mxCell>
        <mxCell id="nGODurxmm5sUnsPZHwpg-26" value="" style="edgeStyle=orthogonalEdgeStyle;rounded=0;orthogonalLoop=1;jettySize=auto;html=1;flowAnimation=1;" edge="1" source="nGODurxmm5sUnsPZHwpg-27" target="nGODurxmm5sUnsPZHwpg-29" parent="1">
          <mxGeometry relative="1" as="geometry" />
        </mxCell>
        <mxCell id="nGODurxmm5sUnsPZHwpg-27" value="Start" style="ellipse;whiteSpace=wrap;html=1;aspect=fixed;sketch=1;curveFitting=1;jiggle=2;" vertex="1" parent="1">
          <mxGeometry x="50" y="551" width="80" height="80" as="geometry" />
        </mxCell>
        <mxCell id="nGODurxmm5sUnsPZHwpg-28" value="" style="edgeStyle=orthogonalEdgeStyle;rounded=0;orthogonalLoop=1;jettySize=auto;html=1;flowAnimation=1;" edge="1" source="nGODurxmm5sUnsPZHwpg-33" target="nGODurxmm5sUnsPZHwpg-31" parent="1">
          <mxGeometry relative="1" as="geometry" />
        </mxCell>
        <mxCell id="nGODurxmm5sUnsPZHwpg-29" value="Step 1" style="ellipse;whiteSpace=wrap;html=1;aspect=fixed;sketch=1;curveFitting=1;jiggle=2;fillColor=#fad9d5;strokeColor=#ae4132;" vertex="1" parent="1">
          <mxGeometry x="210" y="551" width="80" height="80" as="geometry" />
        </mxCell>
        <mxCell id="nGODurxmm5sUnsPZHwpg-30" value="" style="edgeStyle=orthogonalEdgeStyle;rounded=0;orthogonalLoop=1;jettySize=auto;html=1;flowAnimation=1;" edge="1" source="nGODurxmm5sUnsPZHwpg-31" target="nGODurxmm5sUnsPZHwpg-32" parent="1">
          <mxGeometry relative="1" as="geometry" />
        </mxCell>
        <mxCell id="nGODurxmm5sUnsPZHwpg-31" value="Step 2" style="ellipse;whiteSpace=wrap;html=1;aspect=fixed;sketch=1;curveFitting=1;jiggle=2;fillColor=#fad9d5;strokeColor=#ae4132;" vertex="1" parent="1">
          <mxGeometry x="490" y="551" width="80" height="80" as="geometry" />
        </mxCell>
        <mxCell id="nGODurxmm5sUnsPZHwpg-32" value="End" style="ellipse;whiteSpace=wrap;html=1;aspect=fixed;sketch=1;curveFitting=1;jiggle=2;" vertex="1" parent="1">
          <mxGeometry x="650" y="551" width="80" height="80" as="geometry" />
        </mxCell>
        <mxCell id="nGODurxmm5sUnsPZHwpg-34" value="" style="edgeStyle=orthogonalEdgeStyle;rounded=0;orthogonalLoop=1;jettySize=auto;html=1;flowAnimation=1;" edge="1" parent="1" source="nGODurxmm5sUnsPZHwpg-29" target="nGODurxmm5sUnsPZHwpg-33">
          <mxGeometry relative="1" as="geometry">
            <mxPoint x="290" y="591" as="sourcePoint" />
            <mxPoint x="490" y="591" as="targetPoint" />
          </mxGeometry>
        </mxCell>
        <mxCell id="RUJwFk0_eqdJhr4933Hr-2" value="" style="edgeStyle=orthogonalEdgeStyle;rounded=0;orthogonalLoop=1;jettySize=auto;html=1;flowAnimation=1;" edge="1" parent="1" source="nGODurxmm5sUnsPZHwpg-33" target="RUJwFk0_eqdJhr4933Hr-1">
          <mxGeometry relative="1" as="geometry" />
        </mxCell>
        <mxCell id="nGODurxmm5sUnsPZHwpg-33" value="LLM" style="shape=mxgraph.signs.healthcare.brain;html=1;pointerEvents=1;fillColor=#bac8d3;strokeColor=#23445d;verticalLabelPosition=bottom;verticalAlign=top;align=left;labelPosition=right;" vertex="1" parent="1">
          <mxGeometry x="340" y="548.5" width="98" height="85" as="geometry" />
        </mxCell>
        <mxCell id="nGODurxmm5sUnsPZHwpg-35" style="edgeStyle=orthogonalEdgeStyle;rounded=0;orthogonalLoop=1;jettySize=auto;html=1;exitX=0.5;exitY=0.01;exitDx=0;exitDy=0;exitPerimeter=0;entryX=0.455;entryY=0.002;entryDx=0;entryDy=0;entryPerimeter=0;shadow=0;flowAnimation=1;" edge="1" parent="1" source="nGODurxmm5sUnsPZHwpg-33" target="nGODurxmm5sUnsPZHwpg-29">
          <mxGeometry relative="1" as="geometry">
            <Array as="points">
              <mxPoint x="389" y="510" />
              <mxPoint x="246" y="510" />
            </Array>
          </mxGeometry>
        </mxCell>
        <mxCell id="RUJwFk0_eqdJhr4933Hr-7" style="edgeStyle=orthogonalEdgeStyle;rounded=0;orthogonalLoop=1;jettySize=auto;html=1;exitX=0;exitY=0.5;exitDx=0;exitDy=0;flowAnimation=1;" edge="1" parent="1" source="RUJwFk0_eqdJhr4933Hr-1" target="nGODurxmm5sUnsPZHwpg-33">
          <mxGeometry relative="1" as="geometry">
            <Array as="points">
              <mxPoint x="300" y="780" />
              <mxPoint x="300" y="600" />
            </Array>
          </mxGeometry>
        </mxCell>
        <mxCell id="RUJwFk0_eqdJhr4933Hr-1" value="Step 3" style="ellipse;whiteSpace=wrap;html=1;aspect=fixed;sketch=1;curveFitting=1;jiggle=2;fillColor=#fad9d5;strokeColor=#ae4132;" vertex="1" parent="1">
          <mxGeometry x="349" y="740" width="80" height="80" as="geometry" />
        </mxCell>
      </root>
    </mxGraphModel>
  </diagram>
  <diagram id="XhHUNU0U-k5oX-qYji39" name="Agents">
    <mxGraphModel dx="1185" dy="478" grid="1" gridSize="10" guides="1" tooltips="1" connect="1" arrows="1" fold="1" page="1" pageScale="1" pageWidth="850" pageHeight="1100" math="0" shadow="0">
      <root>
        <mxCell id="0" />
        <mxCell id="1" parent="0" />
        <UserObject label="&lt;h1 style=&quot;&quot;&gt;&lt;font style=&quot;&quot; face=&quot;Helvetica&quot;&gt;&lt;span style=&quot;font-size: 22px; font-weight: normal;&quot;&gt;AI Agents&amp;nbsp;&lt;/span&gt;&lt;span style=&quot;color: rgb(0, 0, 0); font-style: normal; font-variant-ligatures: normal; font-variant-caps: normal; letter-spacing: normal; orphans: 2; text-align: left; text-indent: 0px; text-transform: none; widows: 2; word-spacing: 0px; -webkit-text-stroke-width: 0px; white-space: normal; background-color: rgb(255, 255, 255); text-decoration-thickness: initial; text-decoration-style: initial; text-decoration-color: initial; float: none; display: inline !important;&quot;&gt;&lt;span style=&quot;font-size: 22px; font-weight: normal;&quot;&gt;are programs that can &lt;/span&gt;&lt;font style=&quot;font-size: 26px;&quot;&gt;sense &lt;/font&gt;&lt;span style=&quot;font-size: 22px; font-weight: normal;&quot;&gt;and &lt;/span&gt;&lt;font style=&quot;font-size: 26px;&quot;&gt;act &lt;/font&gt;&lt;span style=&quot;font-size: 22px; font-weight: normal;&quot;&gt;on their &lt;/span&gt;&lt;font style=&quot;font-size: 26px;&quot;&gt;environment &lt;/font&gt;&lt;span style=&quot;font-size: 22px; font-weight: normal;&quot;&gt;to achieve their goals without human intervention.&lt;/span&gt;&lt;/span&gt;&lt;/font&gt;&lt;/h1&gt;" id="qk7_TJ3DXciuz9dyA0MN-28">
          <mxCell style="text;whiteSpace=wrap;html=1;" parent="1" vertex="1">
            <mxGeometry x="20" y="20" width="760" height="70" as="geometry" />
          </mxCell>
        </UserObject>
        <mxCell id="qk7_TJ3DXciuz9dyA0MN-34" style="edgeStyle=orthogonalEdgeStyle;rounded=0;orthogonalLoop=1;jettySize=auto;html=1;exitX=1;exitY=0.75;exitDx=0;exitDy=0;entryX=0;entryY=0.75;entryDx=0;entryDy=0;strokeWidth=3;shape=flexArrow;flowAnimation=0;fillColor=#f5f5f5;strokeColor=#666666;" parent="1" source="qk7_TJ3DXciuz9dyA0MN-31" target="qk7_TJ3DXciuz9dyA0MN-32" edge="1">
          <mxGeometry relative="1" as="geometry" />
        </mxCell>
        <mxCell id="qk7_TJ3DXciuz9dyA0MN-31" value="Agent" style="rounded=1;whiteSpace=wrap;html=1;arcSize=2;labelPosition=center;verticalLabelPosition=top;align=center;verticalAlign=bottom;" parent="1" vertex="1">
          <mxGeometry x="150" y="190" width="210" height="220" as="geometry" />
        </mxCell>
        <mxCell id="qk7_TJ3DXciuz9dyA0MN-33" style="edgeStyle=orthogonalEdgeStyle;rounded=0;orthogonalLoop=1;jettySize=auto;html=1;exitX=0;exitY=0.25;exitDx=0;exitDy=0;entryX=1;entryY=0.25;entryDx=0;entryDy=0;strokeWidth=3;shape=flexArrow;flowAnimation=0;fillColor=#f5f5f5;strokeColor=#666666;" parent="1" source="qk7_TJ3DXciuz9dyA0MN-32" target="qk7_TJ3DXciuz9dyA0MN-31" edge="1">
          <mxGeometry relative="1" as="geometry" />
        </mxCell>
        <mxCell id="qk7_TJ3DXciuz9dyA0MN-32" value="Environment" style="rounded=1;whiteSpace=wrap;html=1;arcSize=2;labelPosition=center;verticalLabelPosition=top;align=center;verticalAlign=bottom;" parent="1" vertex="1">
          <mxGeometry x="425" y="190" width="245" height="220" as="geometry" />
        </mxCell>
        <mxCell id="qk7_TJ3DXciuz9dyA0MN-35" value="Receptors" style="ellipse;whiteSpace=wrap;html=1;aspect=fixed;fillColor=#f8cecc;strokeColor=#b85450;" parent="1" vertex="1">
          <mxGeometry x="290" y="210" width="70" height="70" as="geometry" />
        </mxCell>
        <mxCell id="qk7_TJ3DXciuz9dyA0MN-36" value="Actuators" style="ellipse;whiteSpace=wrap;html=1;aspect=fixed;fillColor=#e1d5e7;strokeColor=#9673a6;" parent="1" vertex="1">
          <mxGeometry x="290" y="320" width="70" height="70" as="geometry" />
        </mxCell>
        <mxCell id="qk7_TJ3DXciuz9dyA0MN-37" value="Think" style="ellipse;whiteSpace=wrap;html=1;aspect=fixed;fillColor=#d5e8d4;strokeColor=#82b366;" parent="1" vertex="1">
          <mxGeometry x="170" y="250" width="100" height="100" as="geometry" />
        </mxCell>
        <mxCell id="qk7_TJ3DXciuz9dyA0MN-45" value="&lt;i&gt;instruction&lt;/i&gt;:&lt;div&gt;draw a colorful hut on a piece of paper&lt;/div&gt;" style="shape=manualInput;whiteSpace=wrap;html=1;dashed=0;size=15;" parent="1" vertex="1">
          <mxGeometry x="477.5" y="220" width="140" height="80" as="geometry" />
        </mxCell>
        <mxCell id="qk7_TJ3DXciuz9dyA0MN-47" value="" style="group" parent="1" vertex="1" connectable="0">
          <mxGeometry x="480" y="330" width="36" height="40" as="geometry" />
        </mxCell>
        <mxCell id="qk7_TJ3DXciuz9dyA0MN-40" value="" style="whiteSpace=wrap;html=1;shape=mxgraph.basic.document" parent="qk7_TJ3DXciuz9dyA0MN-47" vertex="1">
          <mxGeometry y="4.444444444444444" width="27" height="35.55555555555555" as="geometry" />
        </mxCell>
        <mxCell id="qk7_TJ3DXciuz9dyA0MN-39" value="" style="sketch=0;pointerEvents=1;shadow=0;dashed=0;html=1;strokeColor=none;fillColor=#505050;labelPosition=center;verticalLabelPosition=bottom;verticalAlign=top;outlineConnect=0;align=center;shape=mxgraph.office.concepts.writing_pen;" parent="qk7_TJ3DXciuz9dyA0MN-47" vertex="1">
          <mxGeometry x="11.7" width="24.299999999999997" height="24" as="geometry" />
        </mxCell>
        <mxCell id="qk7_TJ3DXciuz9dyA0MN-48" value="" style="group" parent="1" vertex="1" connectable="0">
          <mxGeometry x="540" y="340" width="110" height="25.5" as="geometry" />
        </mxCell>
        <mxCell id="qk7_TJ3DXciuz9dyA0MN-42" value="" style="html=1;verticalLabelPosition=bottom;align=center;labelBackgroundColor=#ffffff;verticalAlign=top;strokeWidth=2;strokeColor=#B20000;shadow=0;dashed=0;shape=mxgraph.ios7.icons.paint;fillColor=#e51400;fontColor=#ffffff;" parent="qk7_TJ3DXciuz9dyA0MN-48" vertex="1">
          <mxGeometry width="30" height="25.5" as="geometry" />
        </mxCell>
        <mxCell id="qk7_TJ3DXciuz9dyA0MN-43" value="" style="html=1;verticalLabelPosition=bottom;align=center;labelBackgroundColor=#ffffff;verticalAlign=top;strokeWidth=2;strokeColor=#2D7600;shadow=0;dashed=0;shape=mxgraph.ios7.icons.paint;fillColor=#60a917;fontColor=#ffffff;" parent="qk7_TJ3DXciuz9dyA0MN-48" vertex="1">
          <mxGeometry x="40" width="30" height="25.5" as="geometry" />
        </mxCell>
        <mxCell id="qk7_TJ3DXciuz9dyA0MN-44" value="" style="html=1;verticalLabelPosition=bottom;align=center;labelBackgroundColor=#ffffff;verticalAlign=top;strokeWidth=2;strokeColor=#006EAF;shadow=0;dashed=0;shape=mxgraph.ios7.icons.paint;fillColor=#1ba1e2;fontColor=#ffffff;" parent="qk7_TJ3DXciuz9dyA0MN-48" vertex="1">
          <mxGeometry x="80" width="30" height="25.5" as="geometry" />
        </mxCell>
        <mxCell id="qk7_TJ3DXciuz9dyA0MN-49" value="" style="shape=image;verticalLabelPosition=bottom;labelBackgroundColor=default;verticalAlign=top;aspect=fixed;imageAspect=0;image=https://www.simform.com/wp-content/uploads/2023/07/Goal-based-Agent.png;clipPath=inset(14.74% 6% 12.11% 5.67%);" parent="1" vertex="1">
          <mxGeometry x="170" y="520" width="591.01" height="310" as="geometry" />
        </mxCell>
        <mxCell id="_qKipF82smizp5S-A-sx-1" value="" style="shape=image;verticalLabelPosition=bottom;labelBackgroundColor=default;verticalAlign=top;aspect=fixed;imageAspect=0;image=https://blog.langchain.dev/content/images/2023/10/Untitled--12-.png;" vertex="1" parent="1">
          <mxGeometry x="20" y="1180" width="810" height="422.55" as="geometry" />
        </mxCell>
        <mxCell id="wcthwK2n9r3iJVF9sdSp-1" value="" style="triangle;whiteSpace=wrap;html=1;rotation=25;fillColor=#fad9d5;strokeColor=#ae4132;" vertex="1" parent="1">
          <mxGeometry x="777.85" y="190.74" width="82.13" height="81.63" as="geometry" />
        </mxCell>
        <mxCell id="wcthwK2n9r3iJVF9sdSp-2" value="" style="rounded=0;whiteSpace=wrap;html=1;fillColor=#d0cee2;strokeColor=#56517e;" vertex="1" parent="1">
          <mxGeometry x="770" y="250" width="80" height="60" as="geometry" />
        </mxCell>
        <mxCell id="wcthwK2n9r3iJVF9sdSp-3" value="" style="rounded=0;whiteSpace=wrap;html=1;fillColor=#b0e3e6;strokeColor=#0e8088;" vertex="1" parent="1">
          <mxGeometry x="790" y="270" width="40" height="40" as="geometry" />
        </mxCell>
        <mxCell id="2LUCwdSNnhH2Zv0ELZMN-3" value="" style="edgeStyle=orthogonalEdgeStyle;rounded=0;orthogonalLoop=1;jettySize=auto;html=1;" edge="1" parent="1" source="2LUCwdSNnhH2Zv0ELZMN-1" target="2LUCwdSNnhH2Zv0ELZMN-2">
          <mxGeometry relative="1" as="geometry" />
        </mxCell>
        <mxCell id="2LUCwdSNnhH2Zv0ELZMN-5" value="" style="edgeStyle=orthogonalEdgeStyle;rounded=0;orthogonalLoop=1;jettySize=auto;html=1;" edge="1" parent="1" source="2LUCwdSNnhH2Zv0ELZMN-1" target="2LUCwdSNnhH2Zv0ELZMN-4">
          <mxGeometry relative="1" as="geometry" />
        </mxCell>
        <mxCell id="2LUCwdSNnhH2Zv0ELZMN-7" value="" style="edgeStyle=orthogonalEdgeStyle;rounded=0;orthogonalLoop=1;jettySize=auto;html=1;" edge="1" parent="1" source="2LUCwdSNnhH2Zv0ELZMN-1" target="2LUCwdSNnhH2Zv0ELZMN-6">
          <mxGeometry relative="1" as="geometry" />
        </mxCell>
        <mxCell id="2LUCwdSNnhH2Zv0ELZMN-1" value="Question" style="ellipse;whiteSpace=wrap;html=1;aspect=fixed;" vertex="1" parent="1">
          <mxGeometry x="410" y="2100" width="80" height="80" as="geometry" />
        </mxCell>
        <mxCell id="2LUCwdSNnhH2Zv0ELZMN-2" value="LLM" style="ellipse;whiteSpace=wrap;html=1;aspect=fixed;" vertex="1" parent="1">
          <mxGeometry x="550" y="1920" width="80" height="80" as="geometry" />
        </mxCell>
        <mxCell id="2LUCwdSNnhH2Zv0ELZMN-4" value="RAG" style="ellipse;whiteSpace=wrap;html=1;aspect=fixed;" vertex="1" parent="1">
          <mxGeometry x="730" y="2100" width="80" height="80" as="geometry" />
        </mxCell>
        <mxCell id="2LUCwdSNnhH2Zv0ELZMN-6" value="Tools - WebSearch" style="ellipse;whiteSpace=wrap;html=1;aspect=fixed;" vertex="1" parent="1">
          <mxGeometry x="550" y="2250" width="80" height="80" as="geometry" />
        </mxCell>
      </root>
    </mxGraphModel>
  </diagram>
</mxfile>
